<svg xmlns="http://www.w3.org/2000/svg" xmlns:xlink="http://www.w3.org/1999/xlink" width="1366" zoomAndPan="magnify" viewBox="0 0 1024.5 576" height="768" preserveAspectRatio="xMidYMid meet" version="1.0"><defs><g/><clipPath id="37f89b8f78"><path d="M 0 0.140625 L 1024 0.140625 L 1024 575.859375 L 0 575.859375 Z M 0 0.140625 " clip-rule="nonzero"/></clipPath><clipPath id="a6b0dc9d13"><path d="M 485.472656 35.039062 L 538.621094 35.039062 L 538.621094 87.550781 L 485.472656 87.550781 Z M 485.472656 35.039062 " clip-rule="nonzero"/></clipPath></defs><g clip-path="url(#37f89b8f78)"><path fill="#ffffff" d="M 0 0.140625 L 1024 0.140625 L 1024 575.859375 L 0 575.859375 Z M 0 0.140625 " fill-opacity="1" fill-rule="nonzero"/><path fill="#f2f1ec" d="M 0 0.140625 L 1024 0.140625 L 1024 575.859375 L 0 575.859375 Z M 0 0.140625 " fill-opacity="1" fill-rule="nonzero"/></g><g clip-path="url(#a6b0dc9d13)"><path fill="#1d4355" d="M 512 34.730469 C 497.367188 34.730469 485.472656 46.636719 485.472656 61.253906 C 485.472656 75.886719 497.367188 87.777344 512 87.777344 C 526.617188 87.777344 538.523438 75.886719 538.523438 61.253906 C 538.523438 46.636719 526.617188 34.730469 512 34.730469 Z M 512 85.710938 C 498.515625 85.710938 487.542969 74.738281 487.542969 61.253906 C 487.542969 47.769531 498.515625 36.800781 512 36.800781 C 525.484375 36.800781 536.453125 47.769531 536.453125 61.253906 C 536.453125 74.738281 525.484375 85.710938 512 85.710938 Z M 512 85.710938 " fill-opacity="1" fill-rule="nonzero"/></g><path fill="#1d4355" d="M 512 38.179688 C 499.277344 38.179688 488.921875 48.535156 488.921875 61.253906 C 488.921875 73.976562 499.277344 84.332031 512 84.332031 C 524.71875 84.332031 535.074219 73.976562 535.074219 61.253906 C 535.074219 48.535156 524.71875 38.179688 512 38.179688 Z M 512 38.179688 " fill-opacity="1" fill-rule="nonzero"/><g fill="#f2f1ec" fill-opacity="1"><g transform="translate(497.819902, 65.445819)"><g><path d="M 2.671875 0 L 10.734375 0 C 14.25 0 17.484375 -2.15625 17.484375 -6 C 17.484375 -8.0625 16.046875 -10.328125 14.15625 -11.0625 C 15.328125 -11.703125 16.453125 -13.21875 16.453125 -15.109375 C 16.453125 -19.25 12.984375 -20.6875 9.84375 -20.6875 L 2.671875 -20.6875 Z M 6.390625 -12.359375 L 6.390625 -17.328125 L 9.890625 -17.328125 C 11.671875 -17.328125 13.046875 -16.515625 13.046875 -14.90625 C 13.046875 -12.875 11.640625 -12.359375 10.1875 -12.359375 Z M 6.390625 -3.546875 L 6.390625 -9.15625 L 10.640625 -9.15625 C 12.59375 -9.15625 13.828125 -7.890625 13.828125 -6.40625 C 13.828125 -4.46875 12.703125 -3.546875 10.796875 -3.546875 Z M 6.390625 -3.546875 "/></g></g></g><g fill="#f2f1ec" fill-opacity="1"><g transform="translate(511.177854, 73.973426)"><g><path d="M 8.578125 0.234375 C 12.53125 0.234375 15.765625 -2.125 15.765625 -6.03125 C 15.765625 -12.90625 5.75 -11.578125 5.75 -15.46875 C 5.75 -16.796875 6.890625 -17.6875 8.359375 -17.6875 C 9.75 -17.6875 10.984375 -16.875 11.703125 -15.46875 L 14.78125 -17.359375 C 13.359375 -19.875 11.046875 -21 8.484375 -21 C 5 -21 2.03125 -18.9375 2.03125 -15.28125 C 2.03125 -8.546875 12.046875 -9.984375 12.046875 -5.6875 C 12.046875 -4.234375 10.84375 -3.0625 8.640625 -3.0625 C 6.4375 -3.0625 4.609375 -4.203125 4.34375 -6.78125 L 0.65625 -5.84375 C 1.3125 -1.765625 4.921875 0.234375 8.578125 0.234375 Z M 8.578125 0.234375 "/></g></g></g><g fill="#1d4355" fill-opacity="1"><g transform="translate(459.384973, 479.498804)"><g><path d="M 6.671875 0.171875 C 9.09375 0.171875 10.953125 -1.046875 11.921875 -3.265625 L 10.28125 -3.953125 C 9.578125 -2.140625 8.3125 -1.5 6.71875 -1.5 C 3.859375 -1.5 2.6875 -3.65625 2.6875 -6.265625 C 2.6875 -8.765625 3.84375 -10.921875 6.6875 -10.921875 C 8.28125 -10.921875 9.75 -10.296875 10.25 -8.5 L 11.90625 -9.1875 C 10.96875 -11.484375 9.09375 -12.609375 6.734375 -12.609375 C 2.71875 -12.609375 0.921875 -9.640625 0.921875 -6.21875 C 0.921875 -2.765625 2.75 0.171875 6.671875 0.171875 Z M 6.671875 0.171875 "/></g></g><g transform="translate(471.903277, 479.498804)"><g><path d="M 4.921875 0.171875 C 7.5 0.171875 9.25 -1.921875 9.25 -4.40625 C 9.25 -6.890625 7.5 -8.953125 4.921875 -8.953125 C 2.328125 -8.953125 0.609375 -6.890625 0.609375 -4.40625 C 0.609375 -1.921875 2.328125 0.171875 4.921875 0.171875 Z M 4.921875 -1.265625 C 3.140625 -1.265625 2.359375 -2.796875 2.359375 -4.40625 C 2.359375 -6.015625 3.140625 -7.515625 4.921875 -7.515625 C 6.734375 -7.515625 7.484375 -6.015625 7.484375 -4.40625 C 7.484375 -2.8125 6.734375 -1.265625 4.921875 -1.265625 Z M 4.921875 -1.265625 "/></g></g><g transform="translate(481.768579, 479.498804)"><g><path d="M 1.390625 0 L 3.09375 0 L 3.09375 -4.6875 C 3.09375 -6.078125 3.84375 -7.421875 5.15625 -7.421875 C 6.46875 -7.421875 6.78125 -6.28125 6.78125 -5.140625 L 6.78125 0 L 8.515625 0 L 8.515625 -4.84375 C 8.515625 -6.15625 9.25 -7.421875 10.5625 -7.421875 C 11.875 -7.421875 12.21875 -6.25 12.21875 -5.109375 L 12.21875 0 L 13.9375 0 L 13.9375 -5.296875 C 13.9375 -7.203125 13.015625 -8.953125 10.796875 -8.953125 C 9.609375 -8.953125 8.609375 -8.390625 7.984375 -7.25 C 7.484375 -8.40625 6.5625 -8.953125 5.40625 -8.953125 C 4.4375 -8.953125 3.5625 -8.453125 3.09375 -7.625 L 3.09375 -8.765625 L 1.390625 -8.765625 Z M 1.390625 0 "/></g></g><g transform="translate(496.869607, 479.498804)"><g><path d="M 1.3125 -10.578125 L 3.15625 -10.578125 L 3.15625 -12.40625 L 1.3125 -12.40625 Z M 1.390625 0 L 3.078125 0 L 3.078125 -8.765625 L 1.390625 -8.765625 Z M 1.390625 0 "/></g></g><g transform="translate(501.341058, 479.498804)"><g><path d="M 1.390625 0 L 3.078125 0 L 3.078125 -4.671875 C 3.078125 -6.546875 4.015625 -7.421875 5.3125 -7.421875 C 6.640625 -7.421875 7.15625 -6.28125 7.15625 -5.109375 L 7.15625 0 L 8.84375 0 L 8.84375 -5.296875 C 8.84375 -7.1875 7.96875 -8.9375 5.78125 -8.9375 C 4.703125 -8.9375 3.71875 -8.4375 3.078125 -7.484375 L 3.078125 -8.765625 L 1.390625 -8.765625 Z M 1.390625 0 "/></g></g><g transform="translate(511.346916, 479.498804)"><g><path d="M 4.9375 -1.25 C 3.53125 -1.4375 2.453125 -1.578125 2.453125 -2.390625 C 2.453125 -2.640625 2.5625 -2.828125 2.78125 -2.96875 C 3.265625 -2.734375 3.828125 -2.609375 4.4375 -2.609375 C 6.3125 -2.609375 7.828125 -3.796875 7.828125 -5.71875 C 7.828125 -6.265625 7.703125 -6.765625 7.46875 -7.1875 L 8.828125 -8.265625 L 7.90625 -9.40625 L 6.59375 -8.234375 C 6 -8.671875 5.25 -8.921875 4.40625 -8.921875 C 2.515625 -8.921875 0.96875 -7.671875 0.96875 -5.78125 C 0.96875 -5 1.234375 -4.296875 1.703125 -3.765625 C 1.1875 -3.328125 0.96875 -2.796875 0.96875 -2.15625 C 0.96875 -1.265625 1.390625 -0.734375 1.96875 -0.390625 L 0.875 0.671875 C 0.859375 0.78125 0.84375 0.875 0.84375 1.03125 C 0.84375 2.765625 2.34375 4.078125 4.78125 4.078125 C 6.765625 4.078125 8.453125 3.171875 8.453125 1.296875 C 8.453125 -0.71875 6.65625 -1.015625 4.9375 -1.25 Z M 4.421875 -7.59375 C 5.5 -7.59375 6.125 -6.8125 6.125 -5.78125 C 6.125 -4.734375 5.5 -4.015625 4.421875 -4.015625 C 3.34375 -4.015625 2.71875 -4.734375 2.71875 -5.78125 C 2.71875 -6.78125 3.34375 -7.59375 4.421875 -7.59375 Z M 4.84375 2.671875 C 3.34375 2.671875 2.390625 2 2.328125 1.078125 L 3.078125 0.046875 C 3.515625 0.15625 3.953125 0.21875 4.375 0.28125 C 5.828125 0.484375 6.890625 0.5625 6.890625 1.453125 C 6.890625 2.265625 5.96875 2.671875 4.84375 2.671875 Z M 4.84375 2.671875 "/></g></g><g transform="translate(520.447943, 479.498804)"><g/></g><g transform="translate(524.998456, 479.498804)"><g><path d="M 5.078125 0.140625 C 7.359375 0.140625 9.15625 -1.265625 9.15625 -3.515625 C 9.15625 -7.5625 3.15625 -6.859375 3.15625 -9.4375 C 3.15625 -10.40625 4 -11.015625 4.953125 -11.015625 C 5.859375 -11.015625 6.703125 -10.5625 7.171875 -9.640625 L 8.59375 -10.546875 C 7.796875 -11.953125 6.484375 -12.59375 5 -12.59375 C 3.03125 -12.59375 1.390625 -11.359375 1.390625 -9.3125 C 1.390625 -5.421875 7.390625 -6.265625 7.390625 -3.359375 C 7.390625 -2.15625 6.5 -1.453125 5.09375 -1.453125 C 3.703125 -1.453125 2.46875 -2.171875 2.296875 -3.796875 L 0.578125 -3.328125 C 0.953125 -1.015625 2.96875 0.140625 5.078125 0.140625 Z M 5.078125 0.140625 "/></g></g><g transform="translate(534.863758, 479.498804)"><g><path d="M 4.921875 0.171875 C 7.5 0.171875 9.25 -1.921875 9.25 -4.40625 C 9.25 -6.890625 7.5 -8.953125 4.921875 -8.953125 C 2.328125 -8.953125 0.609375 -6.890625 0.609375 -4.40625 C 0.609375 -1.921875 2.328125 0.171875 4.921875 0.171875 Z M 4.921875 -1.265625 C 3.140625 -1.265625 2.359375 -2.796875 2.359375 -4.40625 C 2.359375 -6.015625 3.140625 -7.515625 4.921875 -7.515625 C 6.734375 -7.515625 7.484375 -6.015625 7.484375 -4.40625 C 7.484375 -2.8125 6.734375 -1.265625 4.921875 -1.265625 Z M 4.921875 -1.265625 "/></g></g><g transform="translate(544.72906, 479.498804)"><g><path d="M 4.921875 0.171875 C 7.5 0.171875 9.25 -1.921875 9.25 -4.40625 C 9.25 -6.890625 7.5 -8.953125 4.921875 -8.953125 C 2.328125 -8.953125 0.609375 -6.890625 0.609375 -4.40625 C 0.609375 -1.921875 2.328125 0.171875 4.921875 0.171875 Z M 4.921875 -1.265625 C 3.140625 -1.265625 2.359375 -2.796875 2.359375 -4.40625 C 2.359375 -6.015625 3.140625 -7.515625 4.921875 -7.515625 C 6.734375 -7.515625 7.484375 -6.015625 7.484375 -4.40625 C 7.484375 -2.8125 6.734375 -1.265625 4.921875 -1.265625 Z M 4.921875 -1.265625 "/></g></g><g transform="translate(554.594362, 479.498804)"><g><path d="M 1.390625 0 L 3.078125 0 L 3.078125 -4.671875 C 3.078125 -6.546875 4.015625 -7.421875 5.3125 -7.421875 C 6.640625 -7.421875 7.15625 -6.28125 7.15625 -5.109375 L 7.15625 0 L 8.84375 0 L 8.84375 -5.296875 C 8.84375 -7.1875 7.96875 -8.9375 5.78125 -8.9375 C 4.703125 -8.9375 3.71875 -8.4375 3.078125 -7.484375 L 3.078125 -8.765625 L 1.390625 -8.765625 Z M 1.390625 0 "/></g></g></g><g fill="#1d4355" fill-opacity="1"><g transform="translate(165.931584, 262.230046)"><g><path d="M 7.75 0 L 18.546875 0 L 18.546875 -25.09375 L 44.875 -25.09375 L 44.875 0 L 55.6875 0 L 55.6875 -60.109375 L 44.875 -60.109375 L 44.875 -35.015625 L 18.546875 -35.015625 L 18.546875 -60.109375 L 7.75 -60.109375 Z M 7.75 0 "/></g></g></g><g fill="#1d4355" fill-opacity="1"><g transform="translate(229.358447, 262.230046)"><g><path d="M 23.859375 0.84375 C 31.015625 0.84375 36.671875 -1.65625 41.3125 -6.8125 L 34.15625 -13.0625 C 31.1875 -9.734375 27.78125 -8.546875 23.953125 -8.546875 C 17.265625 -8.546875 14.203125 -12.296875 13.3125 -17.875 L 42.5 -17.875 C 42.71875 -18.46875 42.875 -20.203125 42.875 -21.953125 C 42.875 -31.4375 38.078125 -43.390625 23.1875 -43.390625 C 8.8125 -43.390625 2.34375 -32.15625 2.34375 -21.09375 C 2.34375 -9.65625 9.234375 0.84375 23.859375 0.84375 Z M 13.3125 -25.359375 C 14.296875 -30.671875 16.96875 -34.671875 23.09375 -34.671875 C 28.5 -34.671875 31.984375 -31.4375 32.671875 -25.359375 Z M 13.3125 -25.359375 "/></g></g></g><g fill="#1d4355" fill-opacity="1"><g transform="translate(274.74843, 262.230046)"><g><path d="M 14.796875 0.84375 C 17.265625 0.84375 20.375 0.421875 22.546875 0 L 22.546875 -8.71875 C 21.4375 -8.546875 20.296875 -8.46875 19.703125 -8.46875 C 17.609375 -8.46875 16.296875 -9.3125 16.296875 -11.3125 L 16.296875 -60.109375 L 5.90625 -60.109375 L 5.90625 -8.46875 C 5.90625 -0.984375 9.90625 0.84375 14.796875 0.84375 Z M 14.796875 0.84375 "/></g></g></g><g fill="#1d4355" fill-opacity="1"><g transform="translate(299.123743, 262.230046)"><g><path d="M 14.796875 0.84375 C 17.265625 0.84375 20.375 0.421875 22.546875 0 L 22.546875 -8.71875 C 21.4375 -8.546875 20.296875 -8.46875 19.703125 -8.46875 C 17.609375 -8.46875 16.296875 -9.3125 16.296875 -11.3125 L 16.296875 -60.109375 L 5.90625 -60.109375 L 5.90625 -8.46875 C 5.90625 -0.984375 9.90625 0.84375 14.796875 0.84375 Z M 14.796875 0.84375 "/></g></g></g><g fill="#1d4355" fill-opacity="1"><g transform="translate(323.499057, 262.230046)"><g><path d="M 23.953125 0.84375 C 37.09375 0.84375 45.734375 -9.3125 45.734375 -21.359375 C 45.734375 -33.359375 37.09375 -43.390625 23.953125 -43.390625 C 10.8125 -43.390625 2.171875 -33.359375 2.171875 -21.359375 C 2.171875 -9.3125 10.8125 0.84375 23.953125 0.84375 Z M 23.953125 -8.078125 C 16.125 -8.078125 12.96875 -14.375 12.96875 -21.359375 C 12.96875 -28.328125 16.125 -34.421875 23.953125 -34.421875 C 31.828125 -34.421875 34.921875 -28.328125 34.921875 -21.359375 C 34.921875 -14.375 31.828125 -8.078125 23.953125 -8.078125 Z M 23.953125 -8.078125 "/></g></g></g><g fill="#1d4355" fill-opacity="1"><g transform="translate(371.483967, 262.230046)"><g><path d="M 5.0625 12.890625 L 11.953125 12.890625 L 22.765625 -11.234375 L 10.8125 -11.234375 Z M 5.0625 12.890625 "/></g></g></g><g fill="#1d4355" fill-opacity="1"><g transform="translate(398.411681, 262.230046)"><g/></g></g><g fill="#1d4355" fill-opacity="1"><g transform="translate(419.34127, 262.230046)"><g><path d="M 7.75 0 L 18.546875 0 L 18.546875 -60.109375 L 7.75 -60.109375 Z M 7.75 0 "/></g></g></g><g fill="#1d4355" fill-opacity="1"><g transform="translate(445.630875, 262.230046)"><g/></g></g><g fill="#1d4355" fill-opacity="1"><g transform="translate(466.560464, 262.230046)"><g><path d="M 17.78125 0.84375 C 22.84375 0.84375 27.359375 -0.765625 31.015625 -6.078125 L 31.6875 0 L 40.25 0 L 40.25 -25.78125 C 40.25 -36.15625 33.4375 -43.390625 21.859375 -43.390625 C 13.484375 -43.390625 8.078125 -39.65625 4 -34.078125 L 11.953125 -28.328125 C 13.78125 -31.4375 17.0625 -34.328125 21.953125 -34.328125 C 27.4375 -34.328125 30.328125 -30.75 30.328125 -25.359375 L 19.265625 -25.359375 C 9.734375 -25.359375 2.34375 -22.296875 2.34375 -13.0625 C 2.34375 -4.171875 9.0625 0.84375 17.78125 0.84375 Z M 19.265625 -7.90625 C 15.234375 -7.90625 12.96875 -9.90625 12.96875 -12.71875 C 12.96875 -15.40625 15.140625 -17.875 19.859375 -17.875 L 30.328125 -17.875 C 30.15625 -12.546875 25.1875 -7.90625 19.265625 -7.90625 Z M 19.265625 -7.90625 "/></g></g></g><g fill="#1d4355" fill-opacity="1"><g transform="translate(511.695196, 262.230046)"><g><path d="M 6.171875 0 L 16.640625 0 L 16.640625 -23.359375 C 16.640625 -29.015625 19.953125 -33.734375 25.609375 -33.734375 C 30.921875 -33.734375 32.328125 -29.53125 32.328125 -24.375 L 32.328125 0 L 42.875 0 L 42.875 -23.359375 C 42.875 -29.015625 46.15625 -33.734375 51.765625 -33.734375 C 57.140625 -33.734375 58.625 -29.4375 58.625 -24.203125 L 58.625 0 L 69.171875 0 L 69.171875 -25.53125 C 69.171875 -34.5 64.359375 -43.390625 53.46875 -43.390625 C 47.984375 -43.390625 42.71875 -41.140625 39.390625 -35.90625 C 36.578125 -40.96875 32.59375 -43.390625 27.4375 -43.390625 C 23.4375 -43.390625 19.4375 -41.90625 16.640625 -38.078125 L 16.640625 -42.5 L 6.171875 -42.5 Z M 6.171875 0 "/></g></g></g><g fill="#1d4355" fill-opacity="1"><g transform="translate(585.842081, 262.230046)"><g/></g></g><g fill="#1d4355" fill-opacity="1"><g transform="translate(606.77167, 262.230046)"><g><path d="M 7.75 0 L 31.1875 0 C 41.390625 0 50.796875 -6.25 50.796875 -17.4375 C 50.796875 -23.4375 46.625 -29.984375 41.140625 -32.15625 C 44.546875 -33.984375 47.8125 -38.421875 47.8125 -43.90625 C 47.8125 -55.9375 37.734375 -60.109375 28.59375 -60.109375 L 7.75 -60.109375 Z M 18.546875 -35.90625 L 18.546875 -50.375 L 28.765625 -50.375 C 33.90625 -50.375 37.90625 -47.984375 37.90625 -43.3125 C 37.90625 -37.390625 33.828125 -35.90625 29.609375 -35.90625 Z M 18.546875 -10.296875 L 18.546875 -26.59375 L 30.921875 -26.59375 C 36.578125 -26.59375 40.15625 -22.9375 40.15625 -18.640625 C 40.15625 -12.96875 36.921875 -10.296875 31.359375 -10.296875 Z M 18.546875 -10.296875 "/></g></g></g><g fill="#1d4355" fill-opacity="1"><g transform="translate(660.967371, 262.230046)"><g><path d="M 17.78125 0.84375 C 22.84375 0.84375 27.359375 -0.765625 31.015625 -6.078125 L 31.6875 0 L 40.25 0 L 40.25 -25.78125 C 40.25 -36.15625 33.4375 -43.390625 21.859375 -43.390625 C 13.484375 -43.390625 8.078125 -39.65625 4 -34.078125 L 11.953125 -28.328125 C 13.78125 -31.4375 17.0625 -34.328125 21.953125 -34.328125 C 27.4375 -34.328125 30.328125 -30.75 30.328125 -25.359375 L 19.265625 -25.359375 C 9.734375 -25.359375 2.34375 -22.296875 2.34375 -13.0625 C 2.34375 -4.171875 9.0625 0.84375 17.78125 0.84375 Z M 19.265625 -7.90625 C 15.234375 -7.90625 12.96875 -9.90625 12.96875 -12.71875 C 12.96875 -15.40625 15.140625 -17.875 19.859375 -17.875 L 30.328125 -17.875 C 30.15625 -12.546875 25.1875 -7.90625 19.265625 -7.90625 Z M 19.265625 -7.90625 "/></g></g></g><g fill="#1d4355" fill-opacity="1"><g transform="translate(706.102125, 262.230046)"><g><path d="M 6.171875 0 L 16.203125 0 L 16.203125 -17.953125 C 16.203125 -28.765625 21.265625 -33.265625 26.125 -33.265625 C 27.78125 -33.265625 29.359375 -32.75 30.75 -31.828125 L 35.484375 -40.328125 C 33.4375 -42.40625 30.5 -43.390625 27.6875 -43.390625 C 22.9375 -43.390625 18.125 -40.5 16.296875 -35.359375 L 16.296875 -42.5 L 6.171875 -42.5 Z M 6.171875 0 "/></g></g></g><g fill="#1d4355" fill-opacity="1"><g transform="translate(740.772063, 262.230046)"><g><path d="M 17.78125 0.84375 C 22.84375 0.84375 27.359375 -0.765625 31.015625 -6.078125 L 31.6875 0 L 40.25 0 L 40.25 -25.78125 C 40.25 -36.15625 33.4375 -43.390625 21.859375 -43.390625 C 13.484375 -43.390625 8.078125 -39.65625 4 -34.078125 L 11.953125 -28.328125 C 13.78125 -31.4375 17.0625 -34.328125 21.953125 -34.328125 C 27.4375 -34.328125 30.328125 -30.75 30.328125 -25.359375 L 19.265625 -25.359375 C 9.734375 -25.359375 2.34375 -22.296875 2.34375 -13.0625 C 2.34375 -4.171875 9.0625 0.84375 17.78125 0.84375 Z M 19.265625 -7.90625 C 15.234375 -7.90625 12.96875 -9.90625 12.96875 -12.71875 C 12.96875 -15.40625 15.140625 -17.875 19.859375 -17.875 L 30.328125 -17.875 C 30.15625 -12.546875 25.1875 -7.90625 19.265625 -7.90625 Z M 19.265625 -7.90625 "/></g></g></g><g fill="#1d4355" fill-opacity="1"><g transform="translate(785.906817, 262.230046)"><g><path d="M 17.78125 0.84375 C 22.84375 0.84375 27.359375 -0.765625 31.015625 -6.078125 L 31.6875 0 L 40.25 0 L 40.25 -25.78125 C 40.25 -36.15625 33.4375 -43.390625 21.859375 -43.390625 C 13.484375 -43.390625 8.078125 -39.65625 4 -34.078125 L 11.953125 -28.328125 C 13.78125 -31.4375 17.0625 -34.328125 21.953125 -34.328125 C 27.4375 -34.328125 30.328125 -30.75 30.328125 -25.359375 L 19.265625 -25.359375 C 9.734375 -25.359375 2.34375 -22.296875 2.34375 -13.0625 C 2.34375 -4.171875 9.0625 0.84375 17.78125 0.84375 Z M 19.265625 -7.90625 C 15.234375 -7.90625 12.96875 -9.90625 12.96875 -12.71875 C 12.96875 -15.40625 15.140625 -17.875 19.859375 -17.875 L 30.328125 -17.875 C 30.15625 -12.546875 25.1875 -7.90625 19.265625 -7.90625 Z M 19.265625 -7.90625 "/></g></g></g><g fill="#1d4355" fill-opacity="1"><g transform="translate(831.041571, 262.230046)"><g><path d="M 9.578125 -18.203125 L 17.4375 -18.203125 L 18.640625 -61 L 8.375 -61 Z M 7.828125 0 L 19.1875 0 L 19.1875 -11.234375 L 7.828125 -11.234375 Z M 7.828125 0 "/></g></g></g><g fill="#1d4355" fill-opacity="1"><g transform="translate(324.067266, 340.204118)"><g><path d="M 6.515625 0 L 8.9375 0 L 8.9375 -6.46875 L 15.109375 -16.546875 L 12.265625 -16.546875 L 7.6875 -8.8125 L 3.15625 -16.546875 L 0.3125 -16.546875 L 6.515625 -6.46875 Z M 6.515625 0 "/></g></g><g transform="translate(339.493331, 340.204118)"><g><path d="M 6.5625 0.234375 C 10 0.234375 12.328125 -2.546875 12.328125 -5.875 C 12.328125 -9.1875 10 -11.953125 6.5625 -11.953125 C 3.109375 -11.953125 0.8125 -9.1875 0.8125 -5.875 C 0.8125 -2.546875 3.109375 0.234375 6.5625 0.234375 Z M 6.5625 -1.6875 C 4.1875 -1.6875 3.15625 -3.71875 3.15625 -5.875 C 3.15625 -8.015625 4.1875 -10.015625 6.5625 -10.015625 C 8.96875 -10.015625 9.984375 -8.015625 9.984375 -5.875 C 9.984375 -3.75 8.96875 -1.6875 6.5625 -1.6875 Z M 6.5625 -1.6875 "/></g></g><g transform="translate(352.647067, 340.204118)"><g><path d="M 5.65625 0.25 C 7.28125 0.25 8.578125 -0.640625 9.234375 -1.703125 L 9.234375 0 L 11.515625 0 L 11.515625 -11.703125 L 9.234375 -11.703125 L 9.234375 -5.78125 C 9.234375 -2.984375 7.734375 -1.75 6.09375 -1.75 C 4.234375 -1.75 3.8125 -3.296875 3.8125 -5.09375 L 3.8125 -11.703125 L 1.515625 -11.703125 L 1.515625 -5.203125 C 1.515625 -2 2.734375 0.25 5.65625 0.25 Z M 5.65625 0.25 "/></g></g><g transform="translate(365.999925, 340.204118)"><g><path d="M 1.84375 0 L 4.046875 0 L 4.046875 -5.421875 C 4.046875 -8.3125 5.34375 -9.75 7.03125 -9.75 C 7.546875 -9.75 8 -9.609375 8.390625 -9.328125 L 9.375 -11.234375 C 8.890625 -11.671875 8.171875 -11.953125 7.375 -11.953125 C 5.984375 -11.953125 4.640625 -11.109375 4.078125 -9.671875 L 4.078125 -11.703125 L 1.84375 -11.703125 Z M 1.84375 0 "/></g></g><g transform="translate(375.428916, 340.204118)"><g/></g><g transform="translate(381.496268, 340.204118)"><g><path d="M 0.453125 0 L 3.0625 0 L 4.328125 -3.59375 L 11.203125 -3.59375 L 12.46875 0 L 15.03125 0 L 8.671875 -16.546875 L 6.859375 -16.546875 Z M 5.125 -5.6875 L 7.78125 -13.046875 L 10.40625 -5.6875 Z M 5.125 -5.6875 "/></g></g><g transform="translate(396.99261, 340.204118)"><g><path d="M 2.3125 0 L 4.703125 0 L 4.703125 -16.546875 L 2.3125 -16.546875 Z M 2.3125 0 "/></g></g><g transform="translate(404.008717, 340.204118)"><g/></g><g transform="translate(410.076068, 340.204118)"><g><path d="M 5.515625 0.234375 C 6.28125 0.234375 7 0.078125 7.34375 -0.0625 L 7.34375 -2.078125 C 6.96875 -1.890625 6.4375 -1.703125 5.953125 -1.703125 C 5.15625 -1.703125 4.546875 -2.1875 4.546875 -3.390625 L 4.546875 -9.8125 L 7.5 -9.8125 L 7.5 -11.703125 L 4.546875 -11.703125 L 4.546875 -16.296875 L 2.3125 -14.46875 L 2.3125 -11.703125 L 0.40625 -11.703125 L 0.40625 -9.8125 L 2.296875 -9.8125 L 2.296875 -3.15625 C 2.296875 -1.09375 3.34375 0.234375 5.515625 0.234375 Z M 5.515625 0.234375 "/></g></g><g transform="translate(418.404035, 340.204118)"><g><path d="M 1.84375 0 L 4.046875 0 L 4.046875 -5.421875 C 4.046875 -8.3125 5.34375 -9.75 7.03125 -9.75 C 7.546875 -9.75 8 -9.609375 8.390625 -9.328125 L 9.375 -11.234375 C 8.890625 -11.671875 8.171875 -11.953125 7.375 -11.953125 C 5.984375 -11.953125 4.640625 -11.109375 4.078125 -9.671875 L 4.078125 -11.703125 L 1.84375 -11.703125 Z M 1.84375 0 "/></g></g><g transform="translate(427.833027, 340.204118)"><g><path d="M 4.796875 0.234375 C 6.328125 0.234375 7.75 -0.359375 8.671875 -1.984375 L 8.796875 0 L 10.6875 0 L 10.6875 -7.140625 C 10.6875 -9.984375 8.953125 -11.953125 5.875 -11.953125 C 3.765625 -11.953125 2.3125 -11.015625 1.234375 -9.515625 L 2.921875 -8.25 C 3.46875 -9.09375 4.421875 -9.96875 5.9375 -9.96875 C 7.78125 -9.96875 8.546875 -8.6875 8.546875 -6.828125 L 5.703125 -6.828125 C 2.703125 -6.828125 0.78125 -5.859375 0.78125 -3.421875 C 0.78125 -1.09375 2.5 0.234375 4.796875 0.234375 Z M 5.078125 -1.6875 C 3.921875 -1.6875 3.109375 -2.25 3.109375 -3.34375 C 3.109375 -4.515625 4.03125 -5.15625 5.875 -5.15625 L 8.546875 -5.15625 C 8.53125 -3.46875 7.125 -1.6875 5.078125 -1.6875 Z M 5.078125 -1.6875 "/></g></g><g transform="translate(440.038007, 340.204118)"><g><path d="M 1.84375 0 L 4.09375 0 L 4.09375 -6.234375 C 4.09375 -8.71875 5.359375 -9.890625 7.078125 -9.890625 C 8.859375 -9.890625 9.546875 -8.390625 9.546875 -6.8125 L 9.546875 0 L 11.796875 0 L 11.796875 -7.078125 C 11.796875 -9.59375 10.640625 -11.921875 7.71875 -11.921875 C 6.28125 -11.921875 4.953125 -11.25 4.09375 -9.984375 L 4.09375 -11.703125 L 1.84375 -11.703125 Z M 1.84375 0 "/></g></g><g transform="translate(453.379151, 340.204118)"><g><path d="M 5.21875 0.234375 C 7.328125 0.234375 9.484375 -0.9375 9.484375 -3.5 C 9.484375 -7.78125 3.34375 -6.53125 3.34375 -8.8125 C 3.34375 -9.5625 4.046875 -10.140625 5.140625 -10.140625 C 6.40625 -10.140625 7.171875 -9.4375 7.625 -8.5625 L 9.34375 -9.515625 C 8.546875 -11 7.125 -11.953125 5.21875 -11.953125 C 3.109375 -11.953125 1.21875 -10.78125 1.21875 -8.515625 C 1.21875 -4.46875 7.265625 -5.921875 7.265625 -3.3125 C 7.265625 -2.359375 6.484375 -1.640625 5.171875 -1.640625 C 3.59375 -1.640625 2.8125 -2.65625 2.453125 -3.71875 L 0.59375 -2.84375 C 1.140625 -1.171875 2.890625 0.234375 5.21875 0.234375 Z M 5.21875 0.234375 "/></g></g><g transform="translate(463.780325, 340.204118)"><g><path d="M 2.453125 0 L 4.75 0 L 4.75 -9.8125 L 7.828125 -9.8125 L 7.828125 -11.703125 L 4.75 -11.703125 L 4.75 -13.296875 C 4.75 -14.359375 5.34375 -14.8125 6.09375 -14.8125 C 6.46875 -14.8125 6.859375 -14.6875 7.25 -14.484375 L 7.90625 -16.328125 C 7.3125 -16.609375 6.625 -16.796875 5.890625 -16.796875 C 4.0625 -16.796875 2.453125 -15.671875 2.453125 -13.484375 L 2.453125 -11.703125 L 0.3125 -11.703125 L 0.3125 -9.8125 L 2.453125 -9.8125 Z M 2.453125 0 "/></g></g><g transform="translate(471.780326, 340.204118)"><g><path d="M 6.5625 0.234375 C 10 0.234375 12.328125 -2.546875 12.328125 -5.875 C 12.328125 -9.1875 10 -11.953125 6.5625 -11.953125 C 3.109375 -11.953125 0.8125 -9.1875 0.8125 -5.875 C 0.8125 -2.546875 3.109375 0.234375 6.5625 0.234375 Z M 6.5625 -1.6875 C 4.1875 -1.6875 3.15625 -3.71875 3.15625 -5.875 C 3.15625 -8.015625 4.1875 -10.015625 6.5625 -10.015625 C 8.96875 -10.015625 9.984375 -8.015625 9.984375 -5.875 C 9.984375 -3.75 8.96875 -1.6875 6.5625 -1.6875 Z M 6.5625 -1.6875 "/></g></g><g transform="translate(484.934062, 340.204118)"><g><path d="M 1.84375 0 L 4.046875 0 L 4.046875 -5.421875 C 4.046875 -8.3125 5.34375 -9.75 7.03125 -9.75 C 7.546875 -9.75 8 -9.609375 8.390625 -9.328125 L 9.375 -11.234375 C 8.890625 -11.671875 8.171875 -11.953125 7.375 -11.953125 C 5.984375 -11.953125 4.640625 -11.109375 4.078125 -9.671875 L 4.078125 -11.703125 L 1.84375 -11.703125 Z M 1.84375 0 "/></g></g><g transform="translate(494.363054, 340.204118)"><g><path d="M 1.84375 0 L 4.140625 0 L 4.140625 -6.25 C 4.140625 -8.109375 5.125 -9.90625 6.875 -9.90625 C 8.625 -9.90625 9.046875 -8.375 9.046875 -6.859375 L 9.046875 0 L 11.34375 0 L 11.34375 -6.453125 C 11.34375 -8.203125 12.328125 -9.90625 14.078125 -9.90625 C 15.84375 -9.90625 16.296875 -8.328125 16.296875 -6.8125 L 16.296875 0 L 18.59375 0 L 18.59375 -7.078125 C 18.59375 -9.609375 17.359375 -11.953125 14.40625 -11.953125 C 12.828125 -11.953125 11.484375 -11.1875 10.65625 -9.671875 C 9.984375 -11.21875 8.765625 -11.953125 7.21875 -11.953125 C 5.921875 -11.953125 4.75 -11.265625 4.140625 -10.171875 L 4.140625 -11.703125 L 1.84375 -11.703125 Z M 1.84375 0 "/></g></g><g transform="translate(514.497758, 340.204118)"><g><path d="M 4.796875 0.234375 C 6.328125 0.234375 7.75 -0.359375 8.671875 -1.984375 L 8.796875 0 L 10.6875 0 L 10.6875 -7.140625 C 10.6875 -9.984375 8.953125 -11.953125 5.875 -11.953125 C 3.765625 -11.953125 2.3125 -11.015625 1.234375 -9.515625 L 2.921875 -8.25 C 3.46875 -9.09375 4.421875 -9.96875 5.9375 -9.96875 C 7.78125 -9.96875 8.546875 -8.6875 8.546875 -6.828125 L 5.703125 -6.828125 C 2.703125 -6.828125 0.78125 -5.859375 0.78125 -3.421875 C 0.78125 -1.09375 2.5 0.234375 4.796875 0.234375 Z M 5.078125 -1.6875 C 3.921875 -1.6875 3.109375 -2.25 3.109375 -3.34375 C 3.109375 -4.515625 4.03125 -5.15625 5.875 -5.15625 L 8.546875 -5.15625 C 8.53125 -3.46875 7.125 -1.6875 5.078125 -1.6875 Z M 5.078125 -1.6875 "/></g></g><g transform="translate(526.702738, 340.204118)"><g><path d="M 5.515625 0.234375 C 6.28125 0.234375 7 0.078125 7.34375 -0.0625 L 7.34375 -2.078125 C 6.96875 -1.890625 6.4375 -1.703125 5.953125 -1.703125 C 5.15625 -1.703125 4.546875 -2.1875 4.546875 -3.390625 L 4.546875 -9.8125 L 7.5 -9.8125 L 7.5 -11.703125 L 4.546875 -11.703125 L 4.546875 -16.296875 L 2.3125 -14.46875 L 2.3125 -11.703125 L 0.40625 -11.703125 L 0.40625 -9.8125 L 2.296875 -9.8125 L 2.296875 -3.15625 C 2.296875 -1.09375 3.34375 0.234375 5.515625 0.234375 Z M 5.515625 0.234375 "/></g></g><g transform="translate(535.030705, 340.204118)"><g><path d="M 1.75 -14.109375 L 4.203125 -14.109375 L 4.203125 -16.546875 L 1.75 -16.546875 Z M 1.84375 0 L 4.109375 0 L 4.109375 -11.703125 L 1.84375 -11.703125 Z M 1.84375 0 "/></g></g><g transform="translate(540.992639, 340.204118)"><g><path d="M 6.5625 0.234375 C 10 0.234375 12.328125 -2.546875 12.328125 -5.875 C 12.328125 -9.1875 10 -11.953125 6.5625 -11.953125 C 3.109375 -11.953125 0.8125 -9.1875 0.8125 -5.875 C 0.8125 -2.546875 3.109375 0.234375 6.5625 0.234375 Z M 6.5625 -1.6875 C 4.1875 -1.6875 3.15625 -3.71875 3.15625 -5.875 C 3.15625 -8.015625 4.1875 -10.015625 6.5625 -10.015625 C 8.96875 -10.015625 9.984375 -8.015625 9.984375 -5.875 C 9.984375 -3.75 8.96875 -1.6875 6.5625 -1.6875 Z M 6.5625 -1.6875 "/></g></g><g transform="translate(554.146375, 340.204118)"><g><path d="M 1.84375 0 L 4.09375 0 L 4.09375 -6.234375 C 4.09375 -8.71875 5.359375 -9.890625 7.078125 -9.890625 C 8.859375 -9.890625 9.546875 -8.390625 9.546875 -6.8125 L 9.546875 0 L 11.796875 0 L 11.796875 -7.078125 C 11.796875 -9.59375 10.640625 -11.921875 7.71875 -11.921875 C 6.28125 -11.921875 4.953125 -11.25 4.09375 -9.984375 L 4.09375 -11.703125 L 1.84375 -11.703125 Z M 1.84375 0 "/></g></g><g transform="translate(567.487519, 340.204118)"><g/></g><g transform="translate(573.55487, 340.204118)"><g><path d="M 5.21875 0.234375 C 7.328125 0.234375 9.484375 -0.9375 9.484375 -3.5 C 9.484375 -7.78125 3.34375 -6.53125 3.34375 -8.8125 C 3.34375 -9.5625 4.046875 -10.140625 5.140625 -10.140625 C 6.40625 -10.140625 7.171875 -9.4375 7.625 -8.5625 L 9.34375 -9.515625 C 8.546875 -11 7.125 -11.953125 5.21875 -11.953125 C 3.109375 -11.953125 1.21875 -10.78125 1.21875 -8.515625 C 1.21875 -4.46875 7.265625 -5.921875 7.265625 -3.3125 C 7.265625 -2.359375 6.484375 -1.640625 5.171875 -1.640625 C 3.59375 -1.640625 2.8125 -2.65625 2.453125 -3.71875 L 0.59375 -2.84375 C 1.140625 -1.171875 2.890625 0.234375 5.21875 0.234375 Z M 5.21875 0.234375 "/></g></g><g transform="translate(583.956044, 340.204118)"><g><path d="M 5.515625 0.234375 C 6.28125 0.234375 7 0.078125 7.34375 -0.0625 L 7.34375 -2.078125 C 6.96875 -1.890625 6.4375 -1.703125 5.953125 -1.703125 C 5.15625 -1.703125 4.546875 -2.1875 4.546875 -3.390625 L 4.546875 -9.8125 L 7.5 -9.8125 L 7.5 -11.703125 L 4.546875 -11.703125 L 4.546875 -16.296875 L 2.3125 -14.46875 L 2.3125 -11.703125 L 0.40625 -11.703125 L 0.40625 -9.8125 L 2.296875 -9.8125 L 2.296875 -3.15625 C 2.296875 -1.09375 3.34375 0.234375 5.515625 0.234375 Z M 5.515625 0.234375 "/></g></g><g transform="translate(592.28401, 340.204118)"><g><path d="M 4.796875 0.234375 C 6.328125 0.234375 7.75 -0.359375 8.671875 -1.984375 L 8.796875 0 L 10.6875 0 L 10.6875 -7.140625 C 10.6875 -9.984375 8.953125 -11.953125 5.875 -11.953125 C 3.765625 -11.953125 2.3125 -11.015625 1.234375 -9.515625 L 2.921875 -8.25 C 3.46875 -9.09375 4.421875 -9.96875 5.9375 -9.96875 C 7.78125 -9.96875 8.546875 -8.6875 8.546875 -6.828125 L 5.703125 -6.828125 C 2.703125 -6.828125 0.78125 -5.859375 0.78125 -3.421875 C 0.78125 -1.09375 2.5 0.234375 4.796875 0.234375 Z M 5.078125 -1.6875 C 3.921875 -1.6875 3.109375 -2.25 3.109375 -3.34375 C 3.109375 -4.515625 4.03125 -5.15625 5.875 -5.15625 L 8.546875 -5.15625 C 8.53125 -3.46875 7.125 -1.6875 5.078125 -1.6875 Z M 5.078125 -1.6875 "/></g></g><g transform="translate(604.488991, 340.204118)"><g><path d="M 1.84375 0 L 4.046875 0 L 4.046875 -5.421875 C 4.046875 -8.3125 5.34375 -9.75 7.03125 -9.75 C 7.546875 -9.75 8 -9.609375 8.390625 -9.328125 L 9.375 -11.234375 C 8.890625 -11.671875 8.171875 -11.953125 7.375 -11.953125 C 5.984375 -11.953125 4.640625 -11.109375 4.078125 -9.671875 L 4.078125 -11.703125 L 1.84375 -11.703125 Z M 1.84375 0 "/></g></g><g transform="translate(613.917982, 340.204118)"><g><path d="M 5.515625 0.234375 C 6.28125 0.234375 7 0.078125 7.34375 -0.0625 L 7.34375 -2.078125 C 6.96875 -1.890625 6.4375 -1.703125 5.953125 -1.703125 C 5.15625 -1.703125 4.546875 -2.1875 4.546875 -3.390625 L 4.546875 -9.8125 L 7.5 -9.8125 L 7.5 -11.703125 L 4.546875 -11.703125 L 4.546875 -16.296875 L 2.3125 -14.46875 L 2.3125 -11.703125 L 0.40625 -11.703125 L 0.40625 -9.8125 L 2.296875 -9.8125 L 2.296875 -3.15625 C 2.296875 -1.09375 3.34375 0.234375 5.515625 0.234375 Z M 5.515625 0.234375 "/></g></g><g transform="translate(622.245949, 340.204118)"><g><path d="M 5.21875 0.234375 C 7.328125 0.234375 9.484375 -0.9375 9.484375 -3.5 C 9.484375 -7.78125 3.34375 -6.53125 3.34375 -8.8125 C 3.34375 -9.5625 4.046875 -10.140625 5.140625 -10.140625 C 6.40625 -10.140625 7.171875 -9.4375 7.625 -8.5625 L 9.34375 -9.515625 C 8.546875 -11 7.125 -11.953125 5.21875 -11.953125 C 3.109375 -11.953125 1.21875 -10.78125 1.21875 -8.515625 C 1.21875 -4.46875 7.265625 -5.921875 7.265625 -3.3125 C 7.265625 -2.359375 6.484375 -1.640625 5.171875 -1.640625 C 3.59375 -1.640625 2.8125 -2.65625 2.453125 -3.71875 L 0.59375 -2.84375 C 1.140625 -1.171875 2.890625 0.234375 5.21875 0.234375 Z M 5.21875 0.234375 "/></g></g><g transform="translate(632.647122, 340.204118)"><g/></g><g transform="translate(638.714473, 340.204118)"><g><path d="M 1.875 0 L 4.140625 0 L 4.140625 -6.125 C 4.140625 -8.1875 5.3125 -9.84375 7.265625 -9.84375 C 9.140625 -9.84375 9.5625 -8.328125 9.5625 -6.8125 L 9.5625 0 L 11.875 0 L 11.875 -7.125 C 11.875 -9.59375 10.6875 -11.921875 7.75 -11.921875 C 6.40625 -11.921875 5 -11.265625 4.140625 -10.03125 L 4.140625 -16.546875 L 1.875 -16.546875 Z M 1.875 0 "/></g></g><g transform="translate(652.125896, 340.204118)"><g><path d="M 6.453125 0.203125 C 8.359375 0.203125 9.796875 -0.40625 11.078125 -1.75 L 9.515625 -3.078125 C 8.640625 -2.125 7.65625 -1.828125 6.453125 -1.828125 C 4.375 -1.828125 3.375 -3.265625 3.265625 -5.109375 L 11.359375 -5.109375 C 11.390625 -5.296875 11.4375 -5.71875 11.4375 -6.09375 C 11.4375 -8.765625 10.203125 -11.90625 6.25 -11.90625 C 2.59375 -11.90625 0.859375 -8.890625 0.859375 -5.796875 C 0.859375 -2.640625 2.671875 0.203125 6.453125 0.203125 Z M 3.265625 -6.828125 C 3.4375 -8.5625 4.328125 -10.015625 6.234375 -10.015625 C 8.21875 -10.015625 9.125 -8.609375 9.234375 -6.828125 Z M 3.265625 -6.828125 "/></g></g><g transform="translate(664.436294, 340.204118)"><g><path d="M 1.84375 0 L 4.046875 0 L 4.046875 -5.421875 C 4.046875 -8.3125 5.34375 -9.75 7.03125 -9.75 C 7.546875 -9.75 8 -9.609375 8.390625 -9.328125 L 9.375 -11.234375 C 8.890625 -11.671875 8.171875 -11.953125 7.375 -11.953125 C 5.984375 -11.953125 4.640625 -11.109375 4.078125 -9.671875 L 4.078125 -11.703125 L 1.84375 -11.703125 Z M 1.84375 0 "/></g></g><g transform="translate(673.865286, 340.204118)"><g><path d="M 6.453125 0.203125 C 8.359375 0.203125 9.796875 -0.40625 11.078125 -1.75 L 9.515625 -3.078125 C 8.640625 -2.125 7.65625 -1.828125 6.453125 -1.828125 C 4.375 -1.828125 3.375 -3.265625 3.265625 -5.109375 L 11.359375 -5.109375 C 11.390625 -5.296875 11.4375 -5.71875 11.4375 -6.09375 C 11.4375 -8.765625 10.203125 -11.90625 6.25 -11.90625 C 2.59375 -11.90625 0.859375 -8.890625 0.859375 -5.796875 C 0.859375 -2.640625 2.671875 0.203125 6.453125 0.203125 Z M 3.265625 -6.828125 C 3.4375 -8.5625 4.328125 -10.015625 6.234375 -10.015625 C 8.21875 -10.015625 9.125 -8.609375 9.234375 -6.828125 Z M 3.265625 -6.828125 "/></g></g><g transform="translate(686.175683, 340.204118)"><g><path d="M 2.546875 0 L 5.125 0 L 5.125 -2.65625 L 2.546875 -2.65625 Z M 2.546875 0 "/></g></g></g><g fill="#1d4355" fill-opacity="1"><g transform="translate(693.84772, 340.204118)"><g/></g></g><g fill="#1d4355" fill-opacity="1"><g transform="translate(275.797857, 373.188019)"><g><path d="M 8.90625 0.234375 C 12.125 0.234375 14.609375 -1.390625 15.890625 -4.34375 L 13.703125 -5.265625 C 12.78125 -2.859375 11.09375 -2 8.953125 -2 C 5.140625 -2 3.578125 -4.890625 3.578125 -8.359375 C 3.578125 -11.703125 5.125 -14.5625 8.90625 -14.5625 C 11.046875 -14.5625 13 -13.734375 13.671875 -11.34375 L 15.875 -12.25 C 14.625 -15.3125 12.125 -16.8125 8.96875 -16.8125 C 3.625 -16.8125 1.234375 -12.84375 1.234375 -8.296875 C 1.234375 -3.6875 3.671875 0.234375 8.90625 0.234375 Z M 8.90625 0.234375 "/></g></g><g transform="translate(292.488929, 373.188019)"><g><path d="M 5.65625 0.25 C 7.28125 0.25 8.578125 -0.640625 9.234375 -1.703125 L 9.234375 0 L 11.515625 0 L 11.515625 -11.703125 L 9.234375 -11.703125 L 9.234375 -5.78125 C 9.234375 -2.984375 7.734375 -1.75 6.09375 -1.75 C 4.234375 -1.75 3.8125 -3.296875 3.8125 -5.09375 L 3.8125 -11.703125 L 1.515625 -11.703125 L 1.515625 -5.203125 C 1.515625 -2 2.734375 0.25 5.65625 0.25 Z M 5.65625 0.25 "/></g></g><g transform="translate(305.841787, 373.188019)"><g><path d="M 5.21875 0.234375 C 7.328125 0.234375 9.484375 -0.9375 9.484375 -3.5 C 9.484375 -7.78125 3.34375 -6.53125 3.34375 -8.8125 C 3.34375 -9.5625 4.046875 -10.140625 5.140625 -10.140625 C 6.40625 -10.140625 7.171875 -9.4375 7.625 -8.5625 L 9.34375 -9.515625 C 8.546875 -11 7.125 -11.953125 5.21875 -11.953125 C 3.109375 -11.953125 1.21875 -10.78125 1.21875 -8.515625 C 1.21875 -4.46875 7.265625 -5.921875 7.265625 -3.3125 C 7.265625 -2.359375 6.484375 -1.640625 5.171875 -1.640625 C 3.59375 -1.640625 2.8125 -2.65625 2.453125 -3.71875 L 0.59375 -2.84375 C 1.140625 -1.171875 2.890625 0.234375 5.21875 0.234375 Z M 5.21875 0.234375 "/></g></g><g transform="translate(316.24296, 373.188019)"><g><path d="M 5.515625 0.234375 C 6.28125 0.234375 7 0.078125 7.34375 -0.0625 L 7.34375 -2.078125 C 6.96875 -1.890625 6.4375 -1.703125 5.953125 -1.703125 C 5.15625 -1.703125 4.546875 -2.1875 4.546875 -3.390625 L 4.546875 -9.8125 L 7.5 -9.8125 L 7.5 -11.703125 L 4.546875 -11.703125 L 4.546875 -16.296875 L 2.3125 -14.46875 L 2.3125 -11.703125 L 0.40625 -11.703125 L 0.40625 -9.8125 L 2.296875 -9.8125 L 2.296875 -3.15625 C 2.296875 -1.09375 3.34375 0.234375 5.515625 0.234375 Z M 5.515625 0.234375 "/></g></g><g transform="translate(324.570927, 373.188019)"><g><path d="M 6.5625 0.234375 C 10 0.234375 12.328125 -2.546875 12.328125 -5.875 C 12.328125 -9.1875 10 -11.953125 6.5625 -11.953125 C 3.109375 -11.953125 0.8125 -9.1875 0.8125 -5.875 C 0.8125 -2.546875 3.109375 0.234375 6.5625 0.234375 Z M 6.5625 -1.6875 C 4.1875 -1.6875 3.15625 -3.71875 3.15625 -5.875 C 3.15625 -8.015625 4.1875 -10.015625 6.5625 -10.015625 C 8.96875 -10.015625 9.984375 -8.015625 9.984375 -5.875 C 9.984375 -3.75 8.96875 -1.6875 6.5625 -1.6875 Z M 6.5625 -1.6875 "/></g></g><g transform="translate(337.724663, 373.188019)"><g><path d="M 1.84375 0 L 4.140625 0 L 4.140625 -6.25 C 4.140625 -8.109375 5.125 -9.90625 6.875 -9.90625 C 8.625 -9.90625 9.046875 -8.375 9.046875 -6.859375 L 9.046875 0 L 11.34375 0 L 11.34375 -6.453125 C 11.34375 -8.203125 12.328125 -9.90625 14.078125 -9.90625 C 15.84375 -9.90625 16.296875 -8.328125 16.296875 -6.8125 L 16.296875 0 L 18.59375 0 L 18.59375 -7.078125 C 18.59375 -9.609375 17.359375 -11.953125 14.40625 -11.953125 C 12.828125 -11.953125 11.484375 -11.1875 10.65625 -9.671875 C 9.984375 -11.21875 8.765625 -11.953125 7.21875 -11.953125 C 5.921875 -11.953125 4.75 -11.265625 4.140625 -10.171875 L 4.140625 -11.703125 L 1.84375 -11.703125 Z M 1.84375 0 "/></g></g><g transform="translate(357.859367, 373.188019)"><g><path d="M 1.75 -14.109375 L 4.203125 -14.109375 L 4.203125 -16.546875 L 1.75 -16.546875 Z M 1.84375 0 L 4.109375 0 L 4.109375 -11.703125 L 1.84375 -11.703125 Z M 1.84375 0 "/></g></g><g transform="translate(363.821301, 373.188019)"><g><path d="M 10.421875 -11.703125 L 1.046875 -11.703125 L 1.046875 -9.8125 L 7.609375 -9.8125 L 0.703125 -1.59375 L 0.703125 0 L 10.421875 0 L 10.421875 -1.921875 L 3.71875 -1.921875 L 10.421875 -9.984375 Z M 10.421875 -11.703125 "/></g></g><g transform="translate(375.112665, 373.188019)"><g><path d="M 6.453125 0.203125 C 8.359375 0.203125 9.796875 -0.40625 11.078125 -1.75 L 9.515625 -3.078125 C 8.640625 -2.125 7.65625 -1.828125 6.453125 -1.828125 C 4.375 -1.828125 3.375 -3.265625 3.265625 -5.109375 L 11.359375 -5.109375 C 11.390625 -5.296875 11.4375 -5.71875 11.4375 -6.09375 C 11.4375 -8.765625 10.203125 -11.90625 6.25 -11.90625 C 2.59375 -11.90625 0.859375 -8.890625 0.859375 -5.796875 C 0.859375 -2.640625 2.671875 0.203125 6.453125 0.203125 Z M 3.265625 -6.828125 C 3.4375 -8.5625 4.328125 -10.015625 6.234375 -10.015625 C 8.21875 -10.015625 9.125 -8.609375 9.234375 -6.828125 Z M 3.265625 -6.828125 "/></g></g><g transform="translate(387.423062, 373.188019)"><g><path d="M 9.296875 -16.546875 L 9.296875 -10.3125 C 8.5 -11.375 7.265625 -11.953125 5.78125 -11.953125 C 2.6875 -11.953125 0.953125 -9.140625 0.953125 -5.859375 C 0.953125 -2.546875 2.6875 0.234375 5.8125 0.234375 C 7.34375 0.234375 8.5625 -0.359375 9.359375 -1.46875 L 9.421875 0 L 11.578125 0 L 11.578125 -16.546875 Z M 6.375 -1.75 C 4.203125 -1.75 3.25 -3.671875 3.25 -5.859375 C 3.25 -8.015625 4.203125 -9.9375 6.375 -9.9375 C 8.578125 -9.9375 9.484375 -8.03125 9.484375 -5.859375 C 9.484375 -3.640625 8.578125 -1.75 6.375 -1.75 Z M 6.375 -1.75 "/></g></g><g transform="translate(400.881337, 373.188019)"><g/></g><g transform="translate(406.948689, 373.188019)"><g><path d="M 5.515625 0.234375 C 6.28125 0.234375 7 0.078125 7.34375 -0.0625 L 7.34375 -2.078125 C 6.96875 -1.890625 6.4375 -1.703125 5.953125 -1.703125 C 5.15625 -1.703125 4.546875 -2.1875 4.546875 -3.390625 L 4.546875 -9.8125 L 7.5 -9.8125 L 7.5 -11.703125 L 4.546875 -11.703125 L 4.546875 -16.296875 L 2.3125 -14.46875 L 2.3125 -11.703125 L 0.40625 -11.703125 L 0.40625 -9.8125 L 2.296875 -9.8125 L 2.296875 -3.15625 C 2.296875 -1.09375 3.34375 0.234375 5.515625 0.234375 Z M 5.515625 0.234375 "/></g></g><g transform="translate(415.276655, 373.188019)"><g><path d="M 1.84375 0 L 4.046875 0 L 4.046875 -5.421875 C 4.046875 -8.3125 5.34375 -9.75 7.03125 -9.75 C 7.546875 -9.75 8 -9.609375 8.390625 -9.328125 L 9.375 -11.234375 C 8.890625 -11.671875 8.171875 -11.953125 7.375 -11.953125 C 5.984375 -11.953125 4.640625 -11.109375 4.078125 -9.671875 L 4.078125 -11.703125 L 1.84375 -11.703125 Z M 1.84375 0 "/></g></g><g transform="translate(424.705647, 373.188019)"><g><path d="M 4.796875 0.234375 C 6.328125 0.234375 7.75 -0.359375 8.671875 -1.984375 L 8.796875 0 L 10.6875 0 L 10.6875 -7.140625 C 10.6875 -9.984375 8.953125 -11.953125 5.875 -11.953125 C 3.765625 -11.953125 2.3125 -11.015625 1.234375 -9.515625 L 2.921875 -8.25 C 3.46875 -9.09375 4.421875 -9.96875 5.9375 -9.96875 C 7.78125 -9.96875 8.546875 -8.6875 8.546875 -6.828125 L 5.703125 -6.828125 C 2.703125 -6.828125 0.78125 -5.859375 0.78125 -3.421875 C 0.78125 -1.09375 2.5 0.234375 4.796875 0.234375 Z M 5.078125 -1.6875 C 3.921875 -1.6875 3.109375 -2.25 3.109375 -3.34375 C 3.109375 -4.515625 4.03125 -5.15625 5.875 -5.15625 L 8.546875 -5.15625 C 8.53125 -3.46875 7.125 -1.6875 5.078125 -1.6875 Z M 5.078125 -1.6875 "/></g></g><g transform="translate(436.910627, 373.188019)"><g><path d="M 1.75 -14.109375 L 4.203125 -14.109375 L 4.203125 -16.546875 L 1.75 -16.546875 Z M 1.84375 0 L 4.109375 0 L 4.109375 -11.703125 L 1.84375 -11.703125 Z M 1.84375 0 "/></g></g><g transform="translate(442.872561, 373.188019)"><g><path d="M 1.84375 0 L 4.09375 0 L 4.09375 -6.234375 C 4.09375 -8.71875 5.359375 -9.890625 7.078125 -9.890625 C 8.859375 -9.890625 9.546875 -8.390625 9.546875 -6.8125 L 9.546875 0 L 11.796875 0 L 11.796875 -7.078125 C 11.796875 -9.59375 10.640625 -11.921875 7.71875 -11.921875 C 6.28125 -11.921875 4.953125 -11.25 4.09375 -9.984375 L 4.09375 -11.703125 L 1.84375 -11.703125 Z M 1.84375 0 "/></g></g><g transform="translate(456.213706, 373.188019)"><g><path d="M 1.75 -14.109375 L 4.203125 -14.109375 L 4.203125 -16.546875 L 1.75 -16.546875 Z M 1.84375 0 L 4.109375 0 L 4.109375 -11.703125 L 1.84375 -11.703125 Z M 1.84375 0 "/></g></g><g transform="translate(462.17564, 373.188019)"><g><path d="M 1.84375 0 L 4.09375 0 L 4.09375 -6.234375 C 4.09375 -8.71875 5.359375 -9.890625 7.078125 -9.890625 C 8.859375 -9.890625 9.546875 -8.390625 9.546875 -6.8125 L 9.546875 0 L 11.796875 0 L 11.796875 -7.078125 C 11.796875 -9.59375 10.640625 -11.921875 7.71875 -11.921875 C 6.28125 -11.921875 4.953125 -11.25 4.09375 -9.984375 L 4.09375 -11.703125 L 1.84375 -11.703125 Z M 1.84375 0 "/></g></g><g transform="translate(475.516784, 373.188019)"><g><path d="M 6.578125 -1.65625 C 4.71875 -1.90625 3.265625 -2.09375 3.265625 -3.203125 C 3.265625 -3.53125 3.421875 -3.765625 3.703125 -3.953125 C 4.359375 -3.65625 5.109375 -3.484375 5.921875 -3.484375 C 8.40625 -3.484375 10.4375 -5.078125 10.4375 -7.625 C 10.4375 -8.34375 10.265625 -9.015625 9.96875 -9.59375 L 11.765625 -11.015625 L 10.546875 -12.546875 L 8.78125 -10.984375 C 8 -11.578125 6.984375 -11.90625 5.875 -11.90625 C 3.34375 -11.90625 1.28125 -10.21875 1.28125 -7.71875 C 1.28125 -6.65625 1.65625 -5.734375 2.265625 -5.03125 C 1.59375 -4.4375 1.296875 -3.734375 1.296875 -2.875 C 1.296875 -1.703125 1.84375 -0.96875 2.640625 -0.515625 L 1.15625 0.90625 C 1.140625 1.046875 1.125 1.171875 1.125 1.375 C 1.125 3.6875 3.125 5.453125 6.375 5.453125 C 9.03125 5.453125 11.28125 4.234375 11.28125 1.71875 C 11.28125 -0.953125 8.875 -1.34375 6.578125 -1.65625 Z M 5.90625 -10.125 C 7.328125 -10.125 8.171875 -9.078125 8.171875 -7.71875 C 8.171875 -6.3125 7.328125 -5.359375 5.90625 -5.359375 C 4.46875 -5.359375 3.625 -6.3125 3.625 -7.71875 C 3.625 -9.046875 4.46875 -10.125 5.90625 -10.125 Z M 6.453125 3.578125 C 4.46875 3.578125 3.1875 2.65625 3.109375 1.421875 L 4.09375 0.0625 C 4.6875 0.203125 5.28125 0.296875 5.84375 0.375 C 7.765625 0.65625 9.1875 0.75 9.1875 1.9375 C 9.1875 3.015625 7.96875 3.578125 6.453125 3.578125 Z M 6.453125 3.578125 "/></g></g><g transform="translate(487.651486, 373.188019)"><g/></g><g transform="translate(493.718838, 373.188019)"><g><path d="M 15.1875 -0.625 L 12.671875 -3.5 C 13.40625 -4.78125 13.859375 -6.28125 13.953125 -7.890625 L 11.828125 -8.125 C 11.765625 -7.078125 11.5625 -6.078125 11.203125 -5.203125 L 8.25 -8.578125 C 9.9375 -9.703125 11.40625 -11.015625 11.40625 -13.015625 C 11.40625 -15.140625 9.609375 -16.75 7.375 -16.75 C 5.1875 -16.75 3.109375 -15.359375 3.109375 -13.015625 C 3.109375 -11.390625 4.390625 -9.859375 5.1875 -8.953125 C 3.1875 -7.71875 1.234375 -6.234375 1.234375 -3.6875 C 1.234375 -1.09375 3.484375 0.25 6.28125 0.25 C 8.359375 0.25 10.109375 -0.53125 11.40625 -1.84375 L 13.625 0.75 Z M 5.21875 -12.96875 C 5.21875 -14.25 6.28125 -14.9375 7.40625 -14.9375 C 8.578125 -14.9375 9.421875 -14.078125 9.421875 -13 C 9.421875 -11.734375 8.28125 -10.84375 6.859375 -9.953125 C 6.140625 -10.78125 5.21875 -12 5.21875 -12.96875 Z M 6.265625 -1.703125 C 4.671875 -1.703125 3.34375 -2.296875 3.34375 -3.671875 C 3.34375 -5.3125 4.84375 -6.40625 6.546875 -7.484375 L 10.078125 -3.375 C 9.171875 -2.34375 7.90625 -1.703125 6.265625 -1.703125 Z M 6.265625 -1.703125 "/></g></g><g transform="translate(509.87111, 373.188019)"><g/></g><g transform="translate(515.938461, 373.188019)"><g><path d="M 5.21875 0.234375 C 7.328125 0.234375 9.484375 -0.9375 9.484375 -3.5 C 9.484375 -7.78125 3.34375 -6.53125 3.34375 -8.8125 C 3.34375 -9.5625 4.046875 -10.140625 5.140625 -10.140625 C 6.40625 -10.140625 7.171875 -9.4375 7.625 -8.5625 L 9.34375 -9.515625 C 8.546875 -11 7.125 -11.953125 5.21875 -11.953125 C 3.109375 -11.953125 1.21875 -10.78125 1.21875 -8.515625 C 1.21875 -4.46875 7.265625 -5.921875 7.265625 -3.3125 C 7.265625 -2.359375 6.484375 -1.640625 5.171875 -1.640625 C 3.59375 -1.640625 2.8125 -2.65625 2.453125 -3.71875 L 0.59375 -2.84375 C 1.140625 -1.171875 2.890625 0.234375 5.21875 0.234375 Z M 5.21875 0.234375 "/></g></g><g transform="translate(526.339635, 373.188019)"><g><path d="M 5.515625 0.234375 C 6.28125 0.234375 7 0.078125 7.34375 -0.0625 L 7.34375 -2.078125 C 6.96875 -1.890625 6.4375 -1.703125 5.953125 -1.703125 C 5.15625 -1.703125 4.546875 -2.1875 4.546875 -3.390625 L 4.546875 -9.8125 L 7.5 -9.8125 L 7.5 -11.703125 L 4.546875 -11.703125 L 4.546875 -16.296875 L 2.3125 -14.46875 L 2.3125 -11.703125 L 0.40625 -11.703125 L 0.40625 -9.8125 L 2.296875 -9.8125 L 2.296875 -3.15625 C 2.296875 -1.09375 3.34375 0.234375 5.515625 0.234375 Z M 5.515625 0.234375 "/></g></g><g transform="translate(534.667601, 373.188019)"><g><path d="M 1.84375 0 L 4.046875 0 L 4.046875 -5.421875 C 4.046875 -8.3125 5.34375 -9.75 7.03125 -9.75 C 7.546875 -9.75 8 -9.609375 8.390625 -9.328125 L 9.375 -11.234375 C 8.890625 -11.671875 8.171875 -11.953125 7.375 -11.953125 C 5.984375 -11.953125 4.640625 -11.109375 4.078125 -9.671875 L 4.078125 -11.703125 L 1.84375 -11.703125 Z M 1.84375 0 "/></g></g><g transform="translate(544.096593, 373.188019)"><g><path d="M 4.796875 0.234375 C 6.328125 0.234375 7.75 -0.359375 8.671875 -1.984375 L 8.796875 0 L 10.6875 0 L 10.6875 -7.140625 C 10.6875 -9.984375 8.953125 -11.953125 5.875 -11.953125 C 3.765625 -11.953125 2.3125 -11.015625 1.234375 -9.515625 L 2.921875 -8.25 C 3.46875 -9.09375 4.421875 -9.96875 5.9375 -9.96875 C 7.78125 -9.96875 8.546875 -8.6875 8.546875 -6.828125 L 5.703125 -6.828125 C 2.703125 -6.828125 0.78125 -5.859375 0.78125 -3.421875 C 0.78125 -1.09375 2.5 0.234375 4.796875 0.234375 Z M 5.078125 -1.6875 C 3.921875 -1.6875 3.109375 -2.25 3.109375 -3.34375 C 3.109375 -4.515625 4.03125 -5.15625 5.875 -5.15625 L 8.546875 -5.15625 C 8.53125 -3.46875 7.125 -1.6875 5.078125 -1.6875 Z M 5.078125 -1.6875 "/></g></g><g transform="translate(556.301573, 373.188019)"><g><path d="M 5.515625 0.234375 C 6.28125 0.234375 7 0.078125 7.34375 -0.0625 L 7.34375 -2.078125 C 6.96875 -1.890625 6.4375 -1.703125 5.953125 -1.703125 C 5.15625 -1.703125 4.546875 -2.1875 4.546875 -3.390625 L 4.546875 -9.8125 L 7.5 -9.8125 L 7.5 -11.703125 L 4.546875 -11.703125 L 4.546875 -16.296875 L 2.3125 -14.46875 L 2.3125 -11.703125 L 0.40625 -11.703125 L 0.40625 -9.8125 L 2.296875 -9.8125 L 2.296875 -3.15625 C 2.296875 -1.09375 3.34375 0.234375 5.515625 0.234375 Z M 5.515625 0.234375 "/></g></g><g transform="translate(564.62954, 373.188019)"><g><path d="M 6.453125 0.203125 C 8.359375 0.203125 9.796875 -0.40625 11.078125 -1.75 L 9.515625 -3.078125 C 8.640625 -2.125 7.65625 -1.828125 6.453125 -1.828125 C 4.375 -1.828125 3.375 -3.265625 3.265625 -5.109375 L 11.359375 -5.109375 C 11.390625 -5.296875 11.4375 -5.71875 11.4375 -6.09375 C 11.4375 -8.765625 10.203125 -11.90625 6.25 -11.90625 C 2.59375 -11.90625 0.859375 -8.890625 0.859375 -5.796875 C 0.859375 -2.640625 2.671875 0.203125 6.453125 0.203125 Z M 3.265625 -6.828125 C 3.4375 -8.5625 4.328125 -10.015625 6.234375 -10.015625 C 8.21875 -10.015625 9.125 -8.609375 9.234375 -6.828125 Z M 3.265625 -6.828125 "/></g></g><g transform="translate(576.939937, 373.188019)"><g><path d="M 6.578125 -1.65625 C 4.71875 -1.90625 3.265625 -2.09375 3.265625 -3.203125 C 3.265625 -3.53125 3.421875 -3.765625 3.703125 -3.953125 C 4.359375 -3.65625 5.109375 -3.484375 5.921875 -3.484375 C 8.40625 -3.484375 10.4375 -5.078125 10.4375 -7.625 C 10.4375 -8.34375 10.265625 -9.015625 9.96875 -9.59375 L 11.765625 -11.015625 L 10.546875 -12.546875 L 8.78125 -10.984375 C 8 -11.578125 6.984375 -11.90625 5.875 -11.90625 C 3.34375 -11.90625 1.28125 -10.21875 1.28125 -7.71875 C 1.28125 -6.65625 1.65625 -5.734375 2.265625 -5.03125 C 1.59375 -4.4375 1.296875 -3.734375 1.296875 -2.875 C 1.296875 -1.703125 1.84375 -0.96875 2.640625 -0.515625 L 1.15625 0.90625 C 1.140625 1.046875 1.125 1.171875 1.125 1.375 C 1.125 3.6875 3.125 5.453125 6.375 5.453125 C 9.03125 5.453125 11.28125 4.234375 11.28125 1.71875 C 11.28125 -0.953125 8.875 -1.34375 6.578125 -1.65625 Z M 5.90625 -10.125 C 7.328125 -10.125 8.171875 -9.078125 8.171875 -7.71875 C 8.171875 -6.3125 7.328125 -5.359375 5.90625 -5.359375 C 4.46875 -5.359375 3.625 -6.3125 3.625 -7.71875 C 3.625 -9.046875 4.46875 -10.125 5.90625 -10.125 Z M 6.453125 3.578125 C 4.46875 3.578125 3.1875 2.65625 3.109375 1.421875 L 4.09375 0.0625 C 4.6875 0.203125 5.28125 0.296875 5.84375 0.375 C 7.765625 0.65625 9.1875 0.75 9.1875 1.9375 C 9.1875 3.015625 7.96875 3.578125 6.453125 3.578125 Z M 6.453125 3.578125 "/></g></g><g transform="translate(589.07464, 373.188019)"><g><path d="M 1.75 -14.109375 L 4.203125 -14.109375 L 4.203125 -16.546875 L 1.75 -16.546875 Z M 1.84375 0 L 4.109375 0 L 4.109375 -11.703125 L 1.84375 -11.703125 Z M 1.84375 0 "/></g></g><g transform="translate(595.036574, 373.188019)"><g><path d="M 6.234375 0.234375 C 8.453125 0.234375 10.15625 -0.984375 10.875 -3.046875 L 8.859375 -3.859375 C 8.53125 -2.59375 7.5 -1.75 6.21875 -1.75 C 3.984375 -1.75 3.203125 -3.859375 3.203125 -5.828125 C 3.203125 -7.78125 4 -9.9375 6.21875 -9.9375 C 7.515625 -9.9375 8.53125 -9.09375 8.859375 -7.796875 L 11.015625 -8.671875 C 10.15625 -10.78125 8.4375 -11.953125 6.21875 -11.953125 C 2.640625 -11.953125 0.890625 -8.9375 0.890625 -5.828125 C 0.890625 -2.6875 2.65625 0.234375 6.234375 0.234375 Z M 6.234375 0.234375 "/></g></g><g transform="translate(606.60905, 373.188019)"><g/></g><g transform="translate(612.676402, 373.188019)"><g><path d="M 6.234375 0.234375 C 8.453125 0.234375 10.15625 -0.984375 10.875 -3.046875 L 8.859375 -3.859375 C 8.53125 -2.59375 7.5 -1.75 6.21875 -1.75 C 3.984375 -1.75 3.203125 -3.859375 3.203125 -5.828125 C 3.203125 -7.78125 4 -9.9375 6.21875 -9.9375 C 7.515625 -9.9375 8.53125 -9.09375 8.859375 -7.796875 L 11.015625 -8.671875 C 10.15625 -10.78125 8.4375 -11.953125 6.21875 -11.953125 C 2.640625 -11.953125 0.890625 -8.9375 0.890625 -5.828125 C 0.890625 -2.6875 2.65625 0.234375 6.234375 0.234375 Z M 6.234375 0.234375 "/></g></g><g transform="translate(624.248878, 373.188019)"><g><path d="M 6.5625 0.234375 C 10 0.234375 12.328125 -2.546875 12.328125 -5.875 C 12.328125 -9.1875 10 -11.953125 6.5625 -11.953125 C 3.109375 -11.953125 0.8125 -9.1875 0.8125 -5.875 C 0.8125 -2.546875 3.109375 0.234375 6.5625 0.234375 Z M 6.5625 -1.6875 C 4.1875 -1.6875 3.15625 -3.71875 3.15625 -5.875 C 3.15625 -8.015625 4.1875 -10.015625 6.5625 -10.015625 C 8.96875 -10.015625 9.984375 -8.015625 9.984375 -5.875 C 9.984375 -3.75 8.96875 -1.6875 6.5625 -1.6875 Z M 6.5625 -1.6875 "/></g></g><g transform="translate(637.402614, 373.188019)"><g><path d="M 1.84375 0 L 4.09375 0 L 4.09375 -6.234375 C 4.09375 -8.71875 5.359375 -9.890625 7.078125 -9.890625 C 8.859375 -9.890625 9.546875 -8.390625 9.546875 -6.8125 L 9.546875 0 L 11.796875 0 L 11.796875 -7.078125 C 11.796875 -9.59375 10.640625 -11.921875 7.71875 -11.921875 C 6.28125 -11.921875 4.953125 -11.25 4.09375 -9.984375 L 4.09375 -11.703125 L 1.84375 -11.703125 Z M 1.84375 0 "/></g></g><g transform="translate(650.743759, 373.188019)"><g><path d="M 5.21875 0.234375 C 7.328125 0.234375 9.484375 -0.9375 9.484375 -3.5 C 9.484375 -7.78125 3.34375 -6.53125 3.34375 -8.8125 C 3.34375 -9.5625 4.046875 -10.140625 5.140625 -10.140625 C 6.40625 -10.140625 7.171875 -9.4375 7.625 -8.5625 L 9.34375 -9.515625 C 8.546875 -11 7.125 -11.953125 5.21875 -11.953125 C 3.109375 -11.953125 1.21875 -10.78125 1.21875 -8.515625 C 1.21875 -4.46875 7.265625 -5.921875 7.265625 -3.3125 C 7.265625 -2.359375 6.484375 -1.640625 5.171875 -1.640625 C 3.59375 -1.640625 2.8125 -2.65625 2.453125 -3.71875 L 0.59375 -2.84375 C 1.140625 -1.171875 2.890625 0.234375 5.21875 0.234375 Z M 5.21875 0.234375 "/></g></g><g transform="translate(661.144932, 373.188019)"><g><path d="M 5.65625 0.25 C 7.28125 0.25 8.578125 -0.640625 9.234375 -1.703125 L 9.234375 0 L 11.515625 0 L 11.515625 -11.703125 L 9.234375 -11.703125 L 9.234375 -5.78125 C 9.234375 -2.984375 7.734375 -1.75 6.09375 -1.75 C 4.234375 -1.75 3.8125 -3.296875 3.8125 -5.09375 L 3.8125 -11.703125 L 1.515625 -11.703125 L 1.515625 -5.203125 C 1.515625 -2 2.734375 0.25 5.65625 0.25 Z M 5.65625 0.25 "/></g></g><g transform="translate(674.49779, 373.188019)"><g><path d="M 3.953125 0.234375 C 4.578125 0.234375 5.3125 0.109375 5.78125 0 L 5.78125 -1.875 C 5.5 -1.8125 5.109375 -1.78125 4.8125 -1.78125 C 4.234375 -1.78125 4.0625 -2.3125 4.0625 -2.5 L 4.0625 -16.546875 L 1.796875 -16.546875 L 1.796875 -2.34375 C 1.796875 -0.625 2.375 0.234375 3.953125 0.234375 Z M 3.953125 0.234375 "/></g></g><g transform="translate(680.86968, 373.188019)"><g><path d="M 5.515625 0.234375 C 6.28125 0.234375 7 0.078125 7.34375 -0.0625 L 7.34375 -2.078125 C 6.96875 -1.890625 6.4375 -1.703125 5.953125 -1.703125 C 5.15625 -1.703125 4.546875 -2.1875 4.546875 -3.390625 L 4.546875 -9.8125 L 7.5 -9.8125 L 7.5 -11.703125 L 4.546875 -11.703125 L 4.546875 -16.296875 L 2.3125 -14.46875 L 2.3125 -11.703125 L 0.40625 -11.703125 L 0.40625 -9.8125 L 2.296875 -9.8125 L 2.296875 -3.15625 C 2.296875 -1.09375 3.34375 0.234375 5.515625 0.234375 Z M 5.515625 0.234375 "/></g></g><g transform="translate(689.197647, 373.188019)"><g><path d="M 1.75 -14.109375 L 4.203125 -14.109375 L 4.203125 -16.546875 L 1.75 -16.546875 Z M 1.84375 0 L 4.109375 0 L 4.109375 -11.703125 L 1.84375 -11.703125 Z M 1.84375 0 "/></g></g><g transform="translate(695.159581, 373.188019)"><g><path d="M 1.84375 0 L 4.09375 0 L 4.09375 -6.234375 C 4.09375 -8.71875 5.359375 -9.890625 7.078125 -9.890625 C 8.859375 -9.890625 9.546875 -8.390625 9.546875 -6.8125 L 9.546875 0 L 11.796875 0 L 11.796875 -7.078125 C 11.796875 -9.59375 10.640625 -11.921875 7.71875 -11.921875 C 6.28125 -11.921875 4.953125 -11.25 4.09375 -9.984375 L 4.09375 -11.703125 L 1.84375 -11.703125 Z M 1.84375 0 "/></g></g><g transform="translate(708.500725, 373.188019)"><g><path d="M 6.578125 -1.65625 C 4.71875 -1.90625 3.265625 -2.09375 3.265625 -3.203125 C 3.265625 -3.53125 3.421875 -3.765625 3.703125 -3.953125 C 4.359375 -3.65625 5.109375 -3.484375 5.921875 -3.484375 C 8.40625 -3.484375 10.4375 -5.078125 10.4375 -7.625 C 10.4375 -8.34375 10.265625 -9.015625 9.96875 -9.59375 L 11.765625 -11.015625 L 10.546875 -12.546875 L 8.78125 -10.984375 C 8 -11.578125 6.984375 -11.90625 5.875 -11.90625 C 3.34375 -11.90625 1.28125 -10.21875 1.28125 -7.71875 C 1.28125 -6.65625 1.65625 -5.734375 2.265625 -5.03125 C 1.59375 -4.4375 1.296875 -3.734375 1.296875 -2.875 C 1.296875 -1.703125 1.84375 -0.96875 2.640625 -0.515625 L 1.15625 0.90625 C 1.140625 1.046875 1.125 1.171875 1.125 1.375 C 1.125 3.6875 3.125 5.453125 6.375 5.453125 C 9.03125 5.453125 11.28125 4.234375 11.28125 1.71875 C 11.28125 -0.953125 8.875 -1.34375 6.578125 -1.65625 Z M 5.90625 -10.125 C 7.328125 -10.125 8.171875 -9.078125 8.171875 -7.71875 C 8.171875 -6.3125 7.328125 -5.359375 5.90625 -5.359375 C 4.46875 -5.359375 3.625 -6.3125 3.625 -7.71875 C 3.625 -9.046875 4.46875 -10.125 5.90625 -10.125 Z M 6.453125 3.578125 C 4.46875 3.578125 3.1875 2.65625 3.109375 1.421875 L 4.09375 0.0625 C 4.6875 0.203125 5.28125 0.296875 5.84375 0.375 C 7.765625 0.65625 9.1875 0.75 9.1875 1.9375 C 9.1875 3.015625 7.96875 3.578125 6.453125 3.578125 Z M 6.453125 3.578125 "/></g></g><g transform="translate(720.635427, 373.188019)"><g/></g><g transform="translate(726.702779, 373.188019)"><g><path d="M 5.515625 0.234375 C 6.28125 0.234375 7 0.078125 7.34375 -0.0625 L 7.34375 -2.078125 C 6.96875 -1.890625 6.4375 -1.703125 5.953125 -1.703125 C 5.15625 -1.703125 4.546875 -2.1875 4.546875 -3.390625 L 4.546875 -9.8125 L 7.5 -9.8125 L 7.5 -11.703125 L 4.546875 -11.703125 L 4.546875 -16.296875 L 2.3125 -14.46875 L 2.3125 -11.703125 L 0.40625 -11.703125 L 0.40625 -9.8125 L 2.296875 -9.8125 L 2.296875 -3.15625 C 2.296875 -1.09375 3.34375 0.234375 5.515625 0.234375 Z M 5.515625 0.234375 "/></g></g><g transform="translate(735.030745, 373.188019)"><g><path d="M 6.5625 0.234375 C 10 0.234375 12.328125 -2.546875 12.328125 -5.875 C 12.328125 -9.1875 10 -11.953125 6.5625 -11.953125 C 3.109375 -11.953125 0.8125 -9.1875 0.8125 -5.875 C 0.8125 -2.546875 3.109375 0.234375 6.5625 0.234375 Z M 6.5625 -1.6875 C 4.1875 -1.6875 3.15625 -3.71875 3.15625 -5.875 C 3.15625 -8.015625 4.1875 -10.015625 6.5625 -10.015625 C 8.96875 -10.015625 9.984375 -8.015625 9.984375 -5.875 C 9.984375 -3.75 8.96875 -1.6875 6.5625 -1.6875 Z M 6.5625 -1.6875 "/></g></g></g><g fill="#1d4355" fill-opacity="1"><g transform="translate(261.273696, 406.17192)"><g><path d="M 6.453125 0.203125 C 8.359375 0.203125 9.796875 -0.40625 11.078125 -1.75 L 9.515625 -3.078125 C 8.640625 -2.125 7.65625 -1.828125 6.453125 -1.828125 C 4.375 -1.828125 3.375 -3.265625 3.265625 -5.109375 L 11.359375 -5.109375 C 11.390625 -5.296875 11.4375 -5.71875 11.4375 -6.09375 C 11.4375 -8.765625 10.203125 -11.90625 6.25 -11.90625 C 2.59375 -11.90625 0.859375 -8.890625 0.859375 -5.796875 C 0.859375 -2.640625 2.671875 0.203125 6.453125 0.203125 Z M 3.265625 -6.828125 C 3.4375 -8.5625 4.328125 -10.015625 6.234375 -10.015625 C 8.21875 -10.015625 9.125 -8.609375 9.234375 -6.828125 Z M 3.265625 -6.828125 "/></g></g><g transform="translate(273.584094, 406.17192)"><g><path d="M 3.953125 0.234375 C 4.578125 0.234375 5.3125 0.109375 5.78125 0 L 5.78125 -1.875 C 5.5 -1.8125 5.109375 -1.78125 4.8125 -1.78125 C 4.234375 -1.78125 4.0625 -2.3125 4.0625 -2.5 L 4.0625 -16.546875 L 1.796875 -16.546875 L 1.796875 -2.34375 C 1.796875 -0.625 2.375 0.234375 3.953125 0.234375 Z M 3.953125 0.234375 "/></g></g><g transform="translate(279.955984, 406.17192)"><g><path d="M 6.453125 0.203125 C 8.359375 0.203125 9.796875 -0.40625 11.078125 -1.75 L 9.515625 -3.078125 C 8.640625 -2.125 7.65625 -1.828125 6.453125 -1.828125 C 4.375 -1.828125 3.375 -3.265625 3.265625 -5.109375 L 11.359375 -5.109375 C 11.390625 -5.296875 11.4375 -5.71875 11.4375 -6.09375 C 11.4375 -8.765625 10.203125 -11.90625 6.25 -11.90625 C 2.59375 -11.90625 0.859375 -8.890625 0.859375 -5.796875 C 0.859375 -2.640625 2.671875 0.203125 6.453125 0.203125 Z M 3.265625 -6.828125 C 3.4375 -8.5625 4.328125 -10.015625 6.234375 -10.015625 C 8.21875 -10.015625 9.125 -8.609375 9.234375 -6.828125 Z M 3.265625 -6.828125 "/></g></g><g transform="translate(292.266381, 406.17192)"><g><path d="M 4.75 0 L 6.65625 0 L 11.203125 -11.703125 L 8.765625 -11.703125 L 5.703125 -2.9375 L 2.65625 -11.703125 L 0.171875 -11.703125 Z M 4.75 0 "/></g></g><g transform="translate(303.65145, 406.17192)"><g><path d="M 4.796875 0.234375 C 6.328125 0.234375 7.75 -0.359375 8.671875 -1.984375 L 8.796875 0 L 10.6875 0 L 10.6875 -7.140625 C 10.6875 -9.984375 8.953125 -11.953125 5.875 -11.953125 C 3.765625 -11.953125 2.3125 -11.015625 1.234375 -9.515625 L 2.921875 -8.25 C 3.46875 -9.09375 4.421875 -9.96875 5.9375 -9.96875 C 7.78125 -9.96875 8.546875 -8.6875 8.546875 -6.828125 L 5.703125 -6.828125 C 2.703125 -6.828125 0.78125 -5.859375 0.78125 -3.421875 C 0.78125 -1.09375 2.5 0.234375 4.796875 0.234375 Z M 5.078125 -1.6875 C 3.921875 -1.6875 3.109375 -2.25 3.109375 -3.34375 C 3.109375 -4.515625 4.03125 -5.15625 5.875 -5.15625 L 8.546875 -5.15625 C 8.53125 -3.46875 7.125 -1.6875 5.078125 -1.6875 Z M 5.078125 -1.6875 "/></g></g><g transform="translate(315.85643, 406.17192)"><g><path d="M 5.515625 0.234375 C 6.28125 0.234375 7 0.078125 7.34375 -0.0625 L 7.34375 -2.078125 C 6.96875 -1.890625 6.4375 -1.703125 5.953125 -1.703125 C 5.15625 -1.703125 4.546875 -2.1875 4.546875 -3.390625 L 4.546875 -9.8125 L 7.5 -9.8125 L 7.5 -11.703125 L 4.546875 -11.703125 L 4.546875 -16.296875 L 2.3125 -14.46875 L 2.3125 -11.703125 L 0.40625 -11.703125 L 0.40625 -9.8125 L 2.296875 -9.8125 L 2.296875 -3.15625 C 2.296875 -1.09375 3.34375 0.234375 5.515625 0.234375 Z M 5.515625 0.234375 "/></g></g><g transform="translate(324.184397, 406.17192)"><g><path d="M 6.453125 0.203125 C 8.359375 0.203125 9.796875 -0.40625 11.078125 -1.75 L 9.515625 -3.078125 C 8.640625 -2.125 7.65625 -1.828125 6.453125 -1.828125 C 4.375 -1.828125 3.375 -3.265625 3.265625 -5.109375 L 11.359375 -5.109375 C 11.390625 -5.296875 11.4375 -5.71875 11.4375 -6.09375 C 11.4375 -8.765625 10.203125 -11.90625 6.25 -11.90625 C 2.59375 -11.90625 0.859375 -8.890625 0.859375 -5.796875 C 0.859375 -2.640625 2.671875 0.203125 6.453125 0.203125 Z M 3.265625 -6.828125 C 3.4375 -8.5625 4.328125 -10.015625 6.234375 -10.015625 C 8.21875 -10.015625 9.125 -8.609375 9.234375 -6.828125 Z M 3.265625 -6.828125 "/></g></g><g transform="translate(336.494794, 406.17192)"><g/></g><g transform="translate(342.562145, 406.17192)"><g><path d="M 2.640625 5.03125 L 5.078125 5.03125 L 11.546875 -11.703125 L 9.0625 -11.703125 L 5.890625 -2.8125 L 2.6875 -11.703125 L 0.1875 -11.703125 L 4.71875 -0.171875 Z M 2.640625 5.03125 "/></g></g><g transform="translate(354.298604, 406.17192)"><g><path d="M 6.5625 0.234375 C 10 0.234375 12.328125 -2.546875 12.328125 -5.875 C 12.328125 -9.1875 10 -11.953125 6.5625 -11.953125 C 3.109375 -11.953125 0.8125 -9.1875 0.8125 -5.875 C 0.8125 -2.546875 3.109375 0.234375 6.5625 0.234375 Z M 6.5625 -1.6875 C 4.1875 -1.6875 3.15625 -3.71875 3.15625 -5.875 C 3.15625 -8.015625 4.1875 -10.015625 6.5625 -10.015625 C 8.96875 -10.015625 9.984375 -8.015625 9.984375 -5.875 C 9.984375 -3.75 8.96875 -1.6875 6.5625 -1.6875 Z M 6.5625 -1.6875 "/></g></g><g transform="translate(367.45234, 406.17192)"><g><path d="M 5.65625 0.25 C 7.28125 0.25 8.578125 -0.640625 9.234375 -1.703125 L 9.234375 0 L 11.515625 0 L 11.515625 -11.703125 L 9.234375 -11.703125 L 9.234375 -5.78125 C 9.234375 -2.984375 7.734375 -1.75 6.09375 -1.75 C 4.234375 -1.75 3.8125 -3.296875 3.8125 -5.09375 L 3.8125 -11.703125 L 1.515625 -11.703125 L 1.515625 -5.203125 C 1.515625 -2 2.734375 0.25 5.65625 0.25 Z M 5.65625 0.25 "/></g></g><g transform="translate(380.805198, 406.17192)"><g><path d="M 1.84375 0 L 4.046875 0 L 4.046875 -5.421875 C 4.046875 -8.3125 5.34375 -9.75 7.03125 -9.75 C 7.546875 -9.75 8 -9.609375 8.390625 -9.328125 L 9.375 -11.234375 C 8.890625 -11.671875 8.171875 -11.953125 7.375 -11.953125 C 5.984375 -11.953125 4.640625 -11.109375 4.078125 -9.671875 L 4.078125 -11.703125 L 1.84375 -11.703125 Z M 1.84375 0 "/></g></g><g transform="translate(390.23419, 406.17192)"><g/></g><g transform="translate(396.301541, 406.17192)"><g><path d="M 7.671875 0.234375 C 10.8125 0.234375 12.515625 -2.5625 12.515625 -5.859375 C 12.515625 -9.15625 10.8125 -11.953125 7.640625 -11.953125 C 6.15625 -11.953125 4.96875 -11.34375 4.1875 -10.3125 L 4.1875 -16.546875 L 1.875 -16.546875 L 1.875 0 L 4.1875 0 L 4.1875 -1.40625 C 4.96875 -0.34375 6.1875 0.234375 7.671875 0.234375 Z M 7.09375 -1.796875 C 4.9375 -1.796875 3.96875 -3.671875 3.96875 -5.859375 C 3.96875 -8.03125 4.9375 -9.9375 7.09375 -9.9375 C 9.265625 -9.9375 10.25 -8.015625 10.25 -5.859375 C 10.25 -3.671875 9.265625 -1.796875 7.09375 -1.796875 Z M 7.09375 -1.796875 "/></g></g><g transform="translate(409.771529, 406.17192)"><g><path d="M 5.65625 0.25 C 7.28125 0.25 8.578125 -0.640625 9.234375 -1.703125 L 9.234375 0 L 11.515625 0 L 11.515625 -11.703125 L 9.234375 -11.703125 L 9.234375 -5.78125 C 9.234375 -2.984375 7.734375 -1.75 6.09375 -1.75 C 4.234375 -1.75 3.8125 -3.296875 3.8125 -5.09375 L 3.8125 -11.703125 L 1.515625 -11.703125 L 1.515625 -5.203125 C 1.515625 -2 2.734375 0.25 5.65625 0.25 Z M 5.65625 0.25 "/></g></g><g transform="translate(423.124387, 406.17192)"><g><path d="M 5.21875 0.234375 C 7.328125 0.234375 9.484375 -0.9375 9.484375 -3.5 C 9.484375 -7.78125 3.34375 -6.53125 3.34375 -8.8125 C 3.34375 -9.5625 4.046875 -10.140625 5.140625 -10.140625 C 6.40625 -10.140625 7.171875 -9.4375 7.625 -8.5625 L 9.34375 -9.515625 C 8.546875 -11 7.125 -11.953125 5.21875 -11.953125 C 3.109375 -11.953125 1.21875 -10.78125 1.21875 -8.515625 C 1.21875 -4.46875 7.265625 -5.921875 7.265625 -3.3125 C 7.265625 -2.359375 6.484375 -1.640625 5.171875 -1.640625 C 3.59375 -1.640625 2.8125 -2.65625 2.453125 -3.71875 L 0.59375 -2.84375 C 1.140625 -1.171875 2.890625 0.234375 5.21875 0.234375 Z M 5.21875 0.234375 "/></g></g><g transform="translate(433.52556, 406.17192)"><g><path d="M 1.75 -14.109375 L 4.203125 -14.109375 L 4.203125 -16.546875 L 1.75 -16.546875 Z M 1.84375 0 L 4.109375 0 L 4.109375 -11.703125 L 1.84375 -11.703125 Z M 1.84375 0 "/></g></g><g transform="translate(439.487494, 406.17192)"><g><path d="M 1.84375 0 L 4.09375 0 L 4.09375 -6.234375 C 4.09375 -8.71875 5.359375 -9.890625 7.078125 -9.890625 C 8.859375 -9.890625 9.546875 -8.390625 9.546875 -6.8125 L 9.546875 0 L 11.796875 0 L 11.796875 -7.078125 C 11.796875 -9.59375 10.640625 -11.921875 7.71875 -11.921875 C 6.28125 -11.921875 4.953125 -11.25 4.09375 -9.984375 L 4.09375 -11.703125 L 1.84375 -11.703125 Z M 1.84375 0 "/></g></g><g transform="translate(452.828639, 406.17192)"><g><path d="M 6.453125 0.203125 C 8.359375 0.203125 9.796875 -0.40625 11.078125 -1.75 L 9.515625 -3.078125 C 8.640625 -2.125 7.65625 -1.828125 6.453125 -1.828125 C 4.375 -1.828125 3.375 -3.265625 3.265625 -5.109375 L 11.359375 -5.109375 C 11.390625 -5.296875 11.4375 -5.71875 11.4375 -6.09375 C 11.4375 -8.765625 10.203125 -11.90625 6.25 -11.90625 C 2.59375 -11.90625 0.859375 -8.890625 0.859375 -5.796875 C 0.859375 -2.640625 2.671875 0.203125 6.453125 0.203125 Z M 3.265625 -6.828125 C 3.4375 -8.5625 4.328125 -10.015625 6.234375 -10.015625 C 8.21875 -10.015625 9.125 -8.609375 9.234375 -6.828125 Z M 3.265625 -6.828125 "/></g></g><g transform="translate(465.139036, 406.17192)"><g><path d="M 5.21875 0.234375 C 7.328125 0.234375 9.484375 -0.9375 9.484375 -3.5 C 9.484375 -7.78125 3.34375 -6.53125 3.34375 -8.8125 C 3.34375 -9.5625 4.046875 -10.140625 5.140625 -10.140625 C 6.40625 -10.140625 7.171875 -9.4375 7.625 -8.5625 L 9.34375 -9.515625 C 8.546875 -11 7.125 -11.953125 5.21875 -11.953125 C 3.109375 -11.953125 1.21875 -10.78125 1.21875 -8.515625 C 1.21875 -4.46875 7.265625 -5.921875 7.265625 -3.3125 C 7.265625 -2.359375 6.484375 -1.640625 5.171875 -1.640625 C 3.59375 -1.640625 2.8125 -2.65625 2.453125 -3.71875 L 0.59375 -2.84375 C 1.140625 -1.171875 2.890625 0.234375 5.21875 0.234375 Z M 5.21875 0.234375 "/></g></g><g transform="translate(475.54021, 406.17192)"><g><path d="M 5.21875 0.234375 C 7.328125 0.234375 9.484375 -0.9375 9.484375 -3.5 C 9.484375 -7.78125 3.34375 -6.53125 3.34375 -8.8125 C 3.34375 -9.5625 4.046875 -10.140625 5.140625 -10.140625 C 6.40625 -10.140625 7.171875 -9.4375 7.625 -8.5625 L 9.34375 -9.515625 C 8.546875 -11 7.125 -11.953125 5.21875 -11.953125 C 3.109375 -11.953125 1.21875 -10.78125 1.21875 -8.515625 C 1.21875 -4.46875 7.265625 -5.921875 7.265625 -3.3125 C 7.265625 -2.359375 6.484375 -1.640625 5.171875 -1.640625 C 3.59375 -1.640625 2.8125 -2.65625 2.453125 -3.71875 L 0.59375 -2.84375 C 1.140625 -1.171875 2.890625 0.234375 5.21875 0.234375 Z M 5.21875 0.234375 "/></g></g><g transform="translate(485.941383, 406.17192)"><g/></g><g transform="translate(492.008734, 406.17192)"><g><path d="M 3.796875 0.015625 L 5.90625 0.015625 L 8.453125 -8.640625 L 10.984375 0 L 13.09375 0 L 16.53125 -11.703125 L 14.109375 -11.703125 L 11.90625 -3.296875 L 9.4375 -11.703125 L 7.453125 -11.703125 L 4.984375 -3.28125 L 2.78125 -11.703125 L 0.359375 -11.703125 Z M 3.796875 0.015625 "/></g></g><g transform="translate(508.887215, 406.17192)"><g><path d="M 1.75 -14.109375 L 4.203125 -14.109375 L 4.203125 -16.546875 L 1.75 -16.546875 Z M 1.84375 0 L 4.109375 0 L 4.109375 -11.703125 L 1.84375 -11.703125 Z M 1.84375 0 "/></g></g><g transform="translate(514.849149, 406.17192)"><g><path d="M 5.515625 0.234375 C 6.28125 0.234375 7 0.078125 7.34375 -0.0625 L 7.34375 -2.078125 C 6.96875 -1.890625 6.4375 -1.703125 5.953125 -1.703125 C 5.15625 -1.703125 4.546875 -2.1875 4.546875 -3.390625 L 4.546875 -9.8125 L 7.5 -9.8125 L 7.5 -11.703125 L 4.546875 -11.703125 L 4.546875 -16.296875 L 2.3125 -14.46875 L 2.3125 -11.703125 L 0.40625 -11.703125 L 0.40625 -9.8125 L 2.296875 -9.8125 L 2.296875 -3.15625 C 2.296875 -1.09375 3.34375 0.234375 5.515625 0.234375 Z M 5.515625 0.234375 "/></g></g><g transform="translate(523.177115, 406.17192)"><g><path d="M 1.875 0 L 4.140625 0 L 4.140625 -6.125 C 4.140625 -8.1875 5.3125 -9.84375 7.265625 -9.84375 C 9.140625 -9.84375 9.5625 -8.328125 9.5625 -6.8125 L 9.5625 0 L 11.875 0 L 11.875 -7.125 C 11.875 -9.59375 10.6875 -11.921875 7.75 -11.921875 C 6.40625 -11.921875 5 -11.265625 4.140625 -10.03125 L 4.140625 -16.546875 L 1.875 -16.546875 Z M 1.875 0 "/></g></g><g transform="translate(536.588538, 406.17192)"><g/></g><g transform="translate(542.655889, 406.17192)"><g><path d="M 4.796875 0.234375 C 6.328125 0.234375 7.75 -0.359375 8.671875 -1.984375 L 8.796875 0 L 10.6875 0 L 10.6875 -7.140625 C 10.6875 -9.984375 8.953125 -11.953125 5.875 -11.953125 C 3.765625 -11.953125 2.3125 -11.015625 1.234375 -9.515625 L 2.921875 -8.25 C 3.46875 -9.09375 4.421875 -9.96875 5.9375 -9.96875 C 7.78125 -9.96875 8.546875 -8.6875 8.546875 -6.828125 L 5.703125 -6.828125 C 2.703125 -6.828125 0.78125 -5.859375 0.78125 -3.421875 C 0.78125 -1.09375 2.5 0.234375 4.796875 0.234375 Z M 5.078125 -1.6875 C 3.921875 -1.6875 3.109375 -2.25 3.109375 -3.34375 C 3.109375 -4.515625 4.03125 -5.15625 5.875 -5.15625 L 8.546875 -5.15625 C 8.53125 -3.46875 7.125 -1.6875 5.078125 -1.6875 Z M 5.078125 -1.6875 "/></g></g><g transform="translate(554.86087, 406.17192)"><g><path d="M 1.84375 0 L 4.046875 0 L 4.046875 -5.421875 C 4.046875 -8.3125 5.34375 -9.75 7.03125 -9.75 C 7.546875 -9.75 8 -9.609375 8.390625 -9.328125 L 9.375 -11.234375 C 8.890625 -11.671875 8.171875 -11.953125 7.375 -11.953125 C 5.984375 -11.953125 4.640625 -11.109375 4.078125 -9.671875 L 4.078125 -11.703125 L 1.84375 -11.703125 Z M 1.84375 0 "/></g></g><g transform="translate(564.289861, 406.17192)"><g><path d="M 5.515625 0.234375 C 6.28125 0.234375 7 0.078125 7.34375 -0.0625 L 7.34375 -2.078125 C 6.96875 -1.890625 6.4375 -1.703125 5.953125 -1.703125 C 5.15625 -1.703125 4.546875 -2.1875 4.546875 -3.390625 L 4.546875 -9.8125 L 7.5 -9.8125 L 7.5 -11.703125 L 4.546875 -11.703125 L 4.546875 -16.296875 L 2.3125 -14.46875 L 2.3125 -11.703125 L 0.40625 -11.703125 L 0.40625 -9.8125 L 2.296875 -9.8125 L 2.296875 -3.15625 C 2.296875 -1.09375 3.34375 0.234375 5.515625 0.234375 Z M 5.515625 0.234375 "/></g></g><g transform="translate(572.617828, 406.17192)"><g><path d="M 1.75 -14.109375 L 4.203125 -14.109375 L 4.203125 -16.546875 L 1.75 -16.546875 Z M 1.84375 0 L 4.109375 0 L 4.109375 -11.703125 L 1.84375 -11.703125 Z M 1.84375 0 "/></g></g><g transform="translate(578.579762, 406.17192)"><g><path d="M 2.453125 0 L 4.75 0 L 4.75 -9.8125 L 7.828125 -9.8125 L 7.828125 -11.703125 L 4.75 -11.703125 L 4.75 -13.296875 C 4.75 -14.359375 5.34375 -14.8125 6.09375 -14.8125 C 6.46875 -14.8125 6.859375 -14.6875 7.25 -14.484375 L 7.90625 -16.328125 C 7.3125 -16.609375 6.625 -16.796875 5.890625 -16.796875 C 4.0625 -16.796875 2.453125 -15.671875 2.453125 -13.484375 L 2.453125 -11.703125 L 0.3125 -11.703125 L 0.3125 -9.8125 L 2.453125 -9.8125 Z M 2.453125 0 "/></g></g><g transform="translate(586.579763, 406.17192)"><g><path d="M 1.75 -14.109375 L 4.203125 -14.109375 L 4.203125 -16.546875 L 1.75 -16.546875 Z M 1.84375 0 L 4.109375 0 L 4.109375 -11.703125 L 1.84375 -11.703125 Z M 1.84375 0 "/></g></g><g transform="translate(592.541697, 406.17192)"><g><path d="M 6.234375 0.234375 C 8.453125 0.234375 10.15625 -0.984375 10.875 -3.046875 L 8.859375 -3.859375 C 8.53125 -2.59375 7.5 -1.75 6.21875 -1.75 C 3.984375 -1.75 3.203125 -3.859375 3.203125 -5.828125 C 3.203125 -7.78125 4 -9.9375 6.21875 -9.9375 C 7.515625 -9.9375 8.53125 -9.09375 8.859375 -7.796875 L 11.015625 -8.671875 C 10.15625 -10.78125 8.4375 -11.953125 6.21875 -11.953125 C 2.640625 -11.953125 0.890625 -8.9375 0.890625 -5.828125 C 0.890625 -2.6875 2.65625 0.234375 6.234375 0.234375 Z M 6.234375 0.234375 "/></g></g><g transform="translate(604.114174, 406.17192)"><g><path d="M 1.75 -14.109375 L 4.203125 -14.109375 L 4.203125 -16.546875 L 1.75 -16.546875 Z M 1.84375 0 L 4.109375 0 L 4.109375 -11.703125 L 1.84375 -11.703125 Z M 1.84375 0 "/></g></g><g transform="translate(610.076108, 406.17192)"><g><path d="M 4.796875 0.234375 C 6.328125 0.234375 7.75 -0.359375 8.671875 -1.984375 L 8.796875 0 L 10.6875 0 L 10.6875 -7.140625 C 10.6875 -9.984375 8.953125 -11.953125 5.875 -11.953125 C 3.765625 -11.953125 2.3125 -11.015625 1.234375 -9.515625 L 2.921875 -8.25 C 3.46875 -9.09375 4.421875 -9.96875 5.9375 -9.96875 C 7.78125 -9.96875 8.546875 -8.6875 8.546875 -6.828125 L 5.703125 -6.828125 C 2.703125 -6.828125 0.78125 -5.859375 0.78125 -3.421875 C 0.78125 -1.09375 2.5 0.234375 4.796875 0.234375 Z M 5.078125 -1.6875 C 3.921875 -1.6875 3.109375 -2.25 3.109375 -3.34375 C 3.109375 -4.515625 4.03125 -5.15625 5.875 -5.15625 L 8.546875 -5.15625 C 8.53125 -3.46875 7.125 -1.6875 5.078125 -1.6875 Z M 5.078125 -1.6875 "/></g></g><g transform="translate(622.281088, 406.17192)"><g><path d="M 3.953125 0.234375 C 4.578125 0.234375 5.3125 0.109375 5.78125 0 L 5.78125 -1.875 C 5.5 -1.8125 5.109375 -1.78125 4.8125 -1.78125 C 4.234375 -1.78125 4.0625 -2.3125 4.0625 -2.5 L 4.0625 -16.546875 L 1.796875 -16.546875 L 1.796875 -2.34375 C 1.796875 -0.625 2.375 0.234375 3.953125 0.234375 Z M 3.953125 0.234375 "/></g></g><g transform="translate(628.652978, 406.17192)"><g/></g><g transform="translate(634.720329, 406.17192)"><g><path d="M 1.75 -14.109375 L 4.203125 -14.109375 L 4.203125 -16.546875 L 1.75 -16.546875 Z M 1.84375 0 L 4.109375 0 L 4.109375 -11.703125 L 1.84375 -11.703125 Z M 1.84375 0 "/></g></g><g transform="translate(640.682263, 406.17192)"><g><path d="M 1.84375 0 L 4.09375 0 L 4.09375 -6.234375 C 4.09375 -8.71875 5.359375 -9.890625 7.078125 -9.890625 C 8.859375 -9.890625 9.546875 -8.390625 9.546875 -6.8125 L 9.546875 0 L 11.796875 0 L 11.796875 -7.078125 C 11.796875 -9.59375 10.640625 -11.921875 7.71875 -11.921875 C 6.28125 -11.921875 4.953125 -11.25 4.09375 -9.984375 L 4.09375 -11.703125 L 1.84375 -11.703125 Z M 1.84375 0 "/></g></g><g transform="translate(654.023408, 406.17192)"><g><path d="M 5.515625 0.234375 C 6.28125 0.234375 7 0.078125 7.34375 -0.0625 L 7.34375 -2.078125 C 6.96875 -1.890625 6.4375 -1.703125 5.953125 -1.703125 C 5.15625 -1.703125 4.546875 -2.1875 4.546875 -3.390625 L 4.546875 -9.8125 L 7.5 -9.8125 L 7.5 -11.703125 L 4.546875 -11.703125 L 4.546875 -16.296875 L 2.3125 -14.46875 L 2.3125 -11.703125 L 0.40625 -11.703125 L 0.40625 -9.8125 L 2.296875 -9.8125 L 2.296875 -3.15625 C 2.296875 -1.09375 3.34375 0.234375 5.515625 0.234375 Z M 5.515625 0.234375 "/></g></g><g transform="translate(662.351374, 406.17192)"><g><path d="M 6.453125 0.203125 C 8.359375 0.203125 9.796875 -0.40625 11.078125 -1.75 L 9.515625 -3.078125 C 8.640625 -2.125 7.65625 -1.828125 6.453125 -1.828125 C 4.375 -1.828125 3.375 -3.265625 3.265625 -5.109375 L 11.359375 -5.109375 C 11.390625 -5.296875 11.4375 -5.71875 11.4375 -6.09375 C 11.4375 -8.765625 10.203125 -11.90625 6.25 -11.90625 C 2.59375 -11.90625 0.859375 -8.890625 0.859375 -5.796875 C 0.859375 -2.640625 2.671875 0.203125 6.453125 0.203125 Z M 3.265625 -6.828125 C 3.4375 -8.5625 4.328125 -10.015625 6.234375 -10.015625 C 8.21875 -10.015625 9.125 -8.609375 9.234375 -6.828125 Z M 3.265625 -6.828125 "/></g></g><g transform="translate(674.661772, 406.17192)"><g><path d="M 3.953125 0.234375 C 4.578125 0.234375 5.3125 0.109375 5.78125 0 L 5.78125 -1.875 C 5.5 -1.8125 5.109375 -1.78125 4.8125 -1.78125 C 4.234375 -1.78125 4.0625 -2.3125 4.0625 -2.5 L 4.0625 -16.546875 L 1.796875 -16.546875 L 1.796875 -2.34375 C 1.796875 -0.625 2.375 0.234375 3.953125 0.234375 Z M 3.953125 0.234375 "/></g></g><g transform="translate(681.033662, 406.17192)"><g><path d="M 3.953125 0.234375 C 4.578125 0.234375 5.3125 0.109375 5.78125 0 L 5.78125 -1.875 C 5.5 -1.8125 5.109375 -1.78125 4.8125 -1.78125 C 4.234375 -1.78125 4.0625 -2.3125 4.0625 -2.5 L 4.0625 -16.546875 L 1.796875 -16.546875 L 1.796875 -2.34375 C 1.796875 -0.625 2.375 0.234375 3.953125 0.234375 Z M 3.953125 0.234375 "/></g></g><g transform="translate(687.405552, 406.17192)"><g><path d="M 1.75 -14.109375 L 4.203125 -14.109375 L 4.203125 -16.546875 L 1.75 -16.546875 Z M 1.84375 0 L 4.109375 0 L 4.109375 -11.703125 L 1.84375 -11.703125 Z M 1.84375 0 "/></g></g><g transform="translate(693.367486, 406.17192)"><g><path d="M 6.578125 -1.65625 C 4.71875 -1.90625 3.265625 -2.09375 3.265625 -3.203125 C 3.265625 -3.53125 3.421875 -3.765625 3.703125 -3.953125 C 4.359375 -3.65625 5.109375 -3.484375 5.921875 -3.484375 C 8.40625 -3.484375 10.4375 -5.078125 10.4375 -7.625 C 10.4375 -8.34375 10.265625 -9.015625 9.96875 -9.59375 L 11.765625 -11.015625 L 10.546875 -12.546875 L 8.78125 -10.984375 C 8 -11.578125 6.984375 -11.90625 5.875 -11.90625 C 3.34375 -11.90625 1.28125 -10.21875 1.28125 -7.71875 C 1.28125 -6.65625 1.65625 -5.734375 2.265625 -5.03125 C 1.59375 -4.4375 1.296875 -3.734375 1.296875 -2.875 C 1.296875 -1.703125 1.84375 -0.96875 2.640625 -0.515625 L 1.15625 0.90625 C 1.140625 1.046875 1.125 1.171875 1.125 1.375 C 1.125 3.6875 3.125 5.453125 6.375 5.453125 C 9.03125 5.453125 11.28125 4.234375 11.28125 1.71875 C 11.28125 -0.953125 8.875 -1.34375 6.578125 -1.65625 Z M 5.90625 -10.125 C 7.328125 -10.125 8.171875 -9.078125 8.171875 -7.71875 C 8.171875 -6.3125 7.328125 -5.359375 5.90625 -5.359375 C 4.46875 -5.359375 3.625 -6.3125 3.625 -7.71875 C 3.625 -9.046875 4.46875 -10.125 5.90625 -10.125 Z M 6.453125 3.578125 C 4.46875 3.578125 3.1875 2.65625 3.109375 1.421875 L 4.09375 0.0625 C 4.6875 0.203125 5.28125 0.296875 5.84375 0.375 C 7.765625 0.65625 9.1875 0.75 9.1875 1.9375 C 9.1875 3.015625 7.96875 3.578125 6.453125 3.578125 Z M 6.453125 3.578125 "/></g></g><g transform="translate(705.502188, 406.17192)"><g><path d="M 6.453125 0.203125 C 8.359375 0.203125 9.796875 -0.40625 11.078125 -1.75 L 9.515625 -3.078125 C 8.640625 -2.125 7.65625 -1.828125 6.453125 -1.828125 C 4.375 -1.828125 3.375 -3.265625 3.265625 -5.109375 L 11.359375 -5.109375 C 11.390625 -5.296875 11.4375 -5.71875 11.4375 -6.09375 C 11.4375 -8.765625 10.203125 -11.90625 6.25 -11.90625 C 2.59375 -11.90625 0.859375 -8.890625 0.859375 -5.796875 C 0.859375 -2.640625 2.671875 0.203125 6.453125 0.203125 Z M 3.265625 -6.828125 C 3.4375 -8.5625 4.328125 -10.015625 6.234375 -10.015625 C 8.21875 -10.015625 9.125 -8.609375 9.234375 -6.828125 Z M 3.265625 -6.828125 "/></g></g><g transform="translate(717.812586, 406.17192)"><g><path d="M 1.84375 0 L 4.09375 0 L 4.09375 -6.234375 C 4.09375 -8.71875 5.359375 -9.890625 7.078125 -9.890625 C 8.859375 -9.890625 9.546875 -8.390625 9.546875 -6.8125 L 9.546875 0 L 11.796875 0 L 11.796875 -7.078125 C 11.796875 -9.59375 10.640625 -11.921875 7.71875 -11.921875 C 6.28125 -11.921875 4.953125 -11.25 4.09375 -9.984375 L 4.09375 -11.703125 L 1.84375 -11.703125 Z M 1.84375 0 "/></g></g><g transform="translate(731.153731, 406.17192)"><g><path d="M 6.234375 0.234375 C 8.453125 0.234375 10.15625 -0.984375 10.875 -3.046875 L 8.859375 -3.859375 C 8.53125 -2.59375 7.5 -1.75 6.21875 -1.75 C 3.984375 -1.75 3.203125 -3.859375 3.203125 -5.828125 C 3.203125 -7.78125 4 -9.9375 6.21875 -9.9375 C 7.515625 -9.9375 8.53125 -9.09375 8.859375 -7.796875 L 11.015625 -8.671875 C 10.15625 -10.78125 8.4375 -11.953125 6.21875 -11.953125 C 2.640625 -11.953125 0.890625 -8.9375 0.890625 -5.828125 C 0.890625 -2.6875 2.65625 0.234375 6.234375 0.234375 Z M 6.234375 0.234375 "/></g></g><g transform="translate(742.726207, 406.17192)"><g><path d="M 6.453125 0.203125 C 8.359375 0.203125 9.796875 -0.40625 11.078125 -1.75 L 9.515625 -3.078125 C 8.640625 -2.125 7.65625 -1.828125 6.453125 -1.828125 C 4.375 -1.828125 3.375 -3.265625 3.265625 -5.109375 L 11.359375 -5.109375 C 11.390625 -5.296875 11.4375 -5.71875 11.4375 -6.09375 C 11.4375 -8.765625 10.203125 -11.90625 6.25 -11.90625 C 2.59375 -11.90625 0.859375 -8.890625 0.859375 -5.796875 C 0.859375 -2.640625 2.671875 0.203125 6.453125 0.203125 Z M 3.265625 -6.828125 C 3.4375 -8.5625 4.328125 -10.015625 6.234375 -10.015625 C 8.21875 -10.015625 9.125 -8.609375 9.234375 -6.828125 Z M 3.265625 -6.828125 "/></g></g><g transform="translate(755.036605, 406.17192)"><g><path d="M 2.546875 0 L 5.125 0 L 5.125 -2.65625 L 2.546875 -2.65625 Z M 2.546875 0 "/></g></g></g></svg>