<svg xmlns="http://www.w3.org/2000/svg" xmlns:xlink="http://www.w3.org/1999/xlink" width="500" zoomAndPan="magnify" viewBox="0 0 375 374.999991" height="500" preserveAspectRatio="xMidYMid meet" version="1.0"><defs><g/><clipPath id="e2ac01f8f1"><path d="M 79 82 L 296 82 L 296 300 L 79 300 Z M 79 82 " clip-rule="nonzero"/></clipPath><clipPath id="d4be93ec7d"><path d="M 233.078125 44.78125 L 332.683594 240.664062 L 142.152344 337.546875 L 42.546875 141.667969 Z M 233.078125 44.78125 " clip-rule="nonzero"/></clipPath><clipPath id="f38cc9e057"><path d="M 233.078125 44.78125 L 332.683594 240.664062 L 142.152344 337.546875 L 42.546875 141.667969 Z M 233.078125 44.78125 " clip-rule="nonzero"/></clipPath><clipPath id="fce5558f8c"><path d="M 267.824219 120.898438 C 227.867188 75.238281 159.320312 69.632812 115.019531 108.402344 C 105.449219 116.773438 97.6875 126.734375 91.75 137.902344 L 92.035156 138.050781 L 91.75 137.902344 C 81.585938 157.035156 77.574219 178.765625 80.140625 200.738281 C 82.765625 223.203125 92.128906 244.191406 107.222656 261.441406 C 147.144531 307.054688 215.625 312.65625 259.875 273.929688 C 304.179688 235.160156 307.78125 166.554688 267.824219 120.898438 Z M 103.417969 240.941406 C 105.109375 242.871094 106.585938 244.382812 107.695312 245.457031 C 115.109375 252.621094 125.355469 253.171875 136.203125 253.75 C 148.734375 254.417969 162.9375 255.179688 175.148438 266.539062 C 185.484375 276.160156 195.640625 284.582031 207.121094 288.410156 C 195.480469 284.945312 185.238281 277.050781 175.164062 268.289062 C 163.019531 257.71875 149.128906 256.511719 136.871094 255.441406 C 125.875 254.484375 115.484375 253.578125 107.980469 246.199219 C 101.289062 239.617188 95 231.078125 90.195312 221.074219 C 94.53125 229.832031 99.535156 236.503906 103.417969 240.941406 Z M 98.679688 234.085938 C 100.191406 236.121094 101.660156 237.917969 103 239.449219 C 104.882812 241.601562 106.523438 243.25 107.726562 244.390625 C 114.957031 251.246094 125.011719 251.445312 135.65625 251.652344 C 148.515625 251.90625 163.082031 252.191406 175.425781 264.445312 C 185.558594 274.511719 194.960938 283.238281 206.171875 287.585938 C 195.191406 283.628906 185.40625 275.484375 175.445312 266.214844 C 163.117188 254.746094 148.828125 253.980469 136.222656 253.308594 C 125.460938 252.734375 115.296875 252.191406 108 245.140625 C 106.765625 243.941406 103.003906 240.132812 98.679688 234.085938 Z M 174.882812 270.359375 C 162.960938 260.683594 149.496094 259.0625 137.621094 257.628906 C 126.347656 256.273438 115.703125 254.988281 107.964844 247.253906 C 101.941406 241.234375 96.253906 233.609375 91.671875 224.78125 C 95.78125 232.484375 100.292969 238.398438 103.796875 242.40625 C 105.3125 244.136719 106.640625 245.511719 107.664062 246.519531 C 115.285156 254.011719 125.753906 254.925781 136.832031 255.890625 C 149.015625 256.953125 162.832031 258.15625 174.867188 268.625 C 185.21875 277.632812 195.742188 285.722656 207.765625 289.085938 C 195.558594 286.089844 184.9375 278.515625 174.882812 270.355469 Z M 208.160156 289.679688 C 195.460938 287.128906 184.523438 279.917969 174.597656 272.429688 C 162.957031 263.644531 150.519531 261.738281 138.492188 259.890625 C 126.902344 258.117188 115.957031 256.4375 107.941406 248.316406 C 101.933594 242.21875 96.265625 234.535156 91.6875 225.667969 C 95.933594 233.683594 100.597656 239.792969 104.148438 243.851562 C 105.5 245.398438 106.691406 246.648438 107.636719 247.589844 C 115.492188 255.4375 126.214844 256.730469 137.566406 258.097656 C 149.960938 259.589844 162.773438 261.136719 174.589844 270.722656 C 184.839844 279.039062 195.671875 286.753906 208.160156 289.683594 Z M 104.273438 245.070312 C 105.355469 246.308594 106.46875 247.503906 107.597656 248.652344 C 115.726562 256.886719 126.75 258.578125 138.417969 260.367188 C 150.386719 262.203125 162.765625 264.101562 174.308594 272.8125 C 183.589844 279.816406 194.632812 287.167969 207.1875 289.992188 C 195.246094 287.734375 184.464844 281.605469 174.3125 274.5 C 163.019531 266.597656 151.074219 264.386719 139.519531 262.242188 C 127.550781 260.023438 116.246094 257.925781 107.921875 249.375 C 101.332031 242.609375 95.140625 233.960938 90.359375 223.917969 C 94.125 231.660156 98.855469 238.882812 104.273438 245.074219 Z M 104.570312 246.464844 C 105.546875 247.582031 106.546875 248.667969 107.570312 249.714844 C 116.003906 258.382812 127.386719 260.492188 139.433594 262.726562 C 150.9375 264.855469 162.824219 267.0625 174.035156 274.90625 C 183.789062 281.730469 196.898438 289.761719 211.789062 291.261719 C 212.464844 291.332031 213.144531 291.371094 213.820312 291.410156 C 199.140625 290.914062 186.15625 284.40625 174.035156 276.570312 C 163.164062 269.542969 151.773438 267.082031 140.757812 264.699219 C 128.335938 262.011719 116.597656 259.472656 107.90625 250.429688 C 101.472656 243.734375 95.421875 235.246094 90.679688 225.425781 C 94.457031 233.117188 99.175781 240.296875 104.574219 246.464844 Z M 105.78125 253.230469 C 106.320312 253.839844 106.863281 254.445312 107.410156 255.042969 C 118.652344 267.25 133.554688 271.96875 149.332031 276.964844 C 156.996094 279.394531 164.925781 281.902344 172.660156 285.367188 C 188.273438 292.359375 203.078125 295.023438 217.277344 293.351562 C 203.113281 295.375 188.289062 293.222656 172.597656 286.925781 C 166.316406 284.40625 159.910156 282.296875 153.710938 280.253906 C 136.40625 274.554688 120.0625 269.167969 107.800781 255.726562 C 105.007812 252.667969 102.351562 249.324219 99.863281 245.757812 C 101.726562 248.351562 103.695312 250.851562 105.777344 253.234375 Z M 99.351562 244.015625 C 101.285156 246.746094 103.351562 249.367188 105.53125 251.859375 C 106.15625 252.574219 106.796875 253.285156 107.441406 253.980469 C 117.847656 265.171875 131.660156 269.265625 146.28125 273.613281 C 155.050781 276.21875 164.125 278.910156 172.933594 283.273438 C 186.152344 289.824219 198.613281 293.148438 210.625 293.242188 C 198.539062 293.523438 186 290.726562 172.886719 284.859375 C 165.121094 281.378906 157.179688 278.867188 149.503906 276.433594 C 133.796875 271.460938 118.964844 266.765625 107.824219 254.667969 C 104.828125 251.417969 101.992188 247.851562 99.351562 244.019531 Z M 104.730469 247.722656 C 105.644531 248.765625 106.582031 249.789062 107.535156 250.785156 C 116.335938 259.9375 128.144531 262.492188 140.648438 265.195312 C 151.621094 267.570312 162.964844 270.023438 173.757812 276.996094 C 188.351562 286.429688 200.21875 290.988281 212.234375 291.761719 C 197.832031 291.261719 185.105469 285.398438 173.75 278.640625 C 163.40625 272.492188 152.652344 269.851562 142.253906 267.296875 C 129.273438 264.109375 117.015625 261.097656 107.886719 251.492188 C 103.582031 246.960938 99.457031 241.625 95.769531 235.640625 C 98.460938 239.933594 101.460938 243.984375 104.730469 247.726562 Z M 105.007812 249.109375 C 105.824219 250.039062 106.65625 250.957031 107.503906 251.847656 C 116.738281 261.566406 129.070312 264.59375 142.125 267.800781 C 152.488281 270.347656 163.203125 272.980469 173.480469 279.089844 C 187.65625 287.523438 199.882812 291.699219 211.859375 292.21875 C 197.171875 292.039062 184.304688 286.617188 173.460938 280.710938 C 163.777344 275.441406 153.773438 272.710938 144.097656 270.070312 C 130.429688 266.34375 117.519531 262.820312 107.863281 252.546875 C 104.1875 248.640625 100.738281 244.25 97.617188 239.464844 C 99.890625 242.851562 102.355469 246.082031 105.007812 249.109375 Z M 105.273438 250.484375 C 105.992188 251.308594 106.726562 252.117188 107.476562 252.910156 C 117.230469 263.292969 130.210938 266.835938 143.957031 270.585938 C 153.601562 273.21875 163.578125 275.9375 173.207031 281.179688 C 183.261719 286.65625 195.039062 291.71875 208.386719 292.628906 C 197.144531 292.164062 185.488281 288.882812 173.175781 282.785156 C 164.324219 278.398438 155.230469 275.699219 146.4375 273.085938 C 131.890625 268.765625 118.152344 264.683594 107.847656 253.605469 C 104.632812 250.148438 101.601562 246.316406 98.800781 242.191406 C 100.820312 245.082031 102.980469 247.859375 105.277344 250.484375 Z M 106.03125 254.597656 C 106.476562 255.101562 106.925781 255.609375 107.382812 256.109375 C 119.742188 269.660156 136.15625 275.070312 153.535156 280.792969 C 159.722656 282.832031 166.121094 284.9375 172.386719 287.457031 C 185.78125 292.832031 198.550781 295.195312 210.820312 294.550781 C 198.46875 295.566406 185.613281 293.726562 172.3125 288.992188 C 168.183594 287.523438 163.976562 286.128906 159.910156 284.78125 C 140.238281 278.273438 121.664062 272.125 107.789062 256.777344 C 104.015625 252.601562 100.632812 248.164062 97.628906 243.53125 C 100.191406 247.414062 102.996094 251.121094 106.03125 254.59375 Z M 106.273438 255.964844 C 106.628906 256.371094 106.992188 256.777344 107.351562 257.175781 C 121.328125 272.636719 139.980469 278.808594 159.722656 285.34375 C 163.789062 286.6875 167.992188 288.082031 172.117188 289.546875 C 185.527344 294.320312 198.484375 296.175781 210.933594 295.136719 C 198.398438 296.550781 185.347656 295.21875 172.023438 291.066406 L 170.03125 290.445312 C 147.507812 283.4375 124.21875 276.191406 107.769531 257.839844 C 107.488281 257.527344 107.214844 257.21875 106.9375 256.902344 C 104.019531 253.570312 101.347656 250.070312 98.902344 246.453125 C 101.183594 249.769531 103.640625 252.957031 106.277344 255.96875 Z M 106.472656 257.28125 C 106.75 257.601562 107.035156 257.925781 107.320312 258.242188 C 123.878906 276.71875 147.246094 283.992188 169.847656 291.023438 L 171.84375 291.640625 C 185.246094 295.820312 198.375 297.160156 210.988281 295.742188 C 198.285156 297.542969 185.054688 296.714844 171.730469 293.140625 C 149.945312 287.296875 125.3125 278.660156 107.746094 258.898438 C 107.558594 258.6875 107.378906 258.484375 107.195312 258.273438 C 105.214844 256.007812 103.347656 253.671875 101.582031 251.277344 C 103.132812 253.328125 104.765625 255.335938 106.46875 257.28125 Z M 107.710938 261.015625 C 105.746094 258.769531 103.890625 256.457031 102.132812 254.089844 C 103.699219 256.15625 105.339844 258.175781 107.0625 260.140625 L 107.261719 260.371094 C 122.644531 277.777344 144.191406 289.703125 171.308594 295.824219 C 184.09375 298.710938 196.746094 299.226562 208.90625 297.480469 C 172.898438 303.679688 134.054688 291.113281 107.714844 261.015625 Z M 171.441406 295.210938 C 144.460938 289.125 123.023438 277.261719 107.730469 259.957031 L 107.535156 259.738281 C 105.621094 257.546875 103.8125 255.296875 102.089844 252.988281 C 103.570312 254.925781 105.109375 256.820312 106.722656 258.664062 C 106.910156 258.878906 107.097656 259.09375 107.289062 259.304688 C 124.964844 279.191406 149.703125 287.871094 171.574219 293.734375 C 187.121094 297.902344 202.539062 298.367188 217.15625 295.285156 C 202.566406 298.707031 187.105469 298.75 171.441406 295.210938 Z M 258.464844 274.285156 C 258.289062 274.433594 258.113281 274.582031 257.9375 274.726562 C 257.742188 274.886719 257.550781 275.046875 257.355469 275.207031 C 257.191406 275.339844 257.03125 275.472656 256.867188 275.601562 C 256.695312 275.730469 256.527344 275.871094 256.359375 276 C 256.222656 276.109375 256.082031 276.214844 255.945312 276.320312 C 255.753906 276.464844 255.558594 276.605469 255.371094 276.753906 C 255.34375 276.773438 255.3125 276.796875 255.285156 276.816406 C 254.890625 277.109375 254.503906 277.390625 254.109375 277.671875 C 254.089844 277.683594 254.074219 277.699219 254.054688 277.710938 C 253.460938 278.128906 252.871094 278.535156 252.28125 278.933594 C 252.171875 279.007812 252.058594 279.085938 251.953125 279.15625 C 251.632812 279.363281 251.3125 279.59375 250.992188 279.796875 C 250.90625 279.851562 250.828125 279.898438 250.742188 279.957031 C 249.890625 280.5 249.046875 281.007812 248.207031 281.507812 C 247.914062 281.675781 247.628906 281.847656 247.335938 282.011719 C 246.722656 282.367188 246.109375 282.703125 245.5 283.035156 C 245.027344 283.289062 244.5625 283.535156 244.09375 283.773438 C 244.035156 283.804688 243.976562 283.835938 243.917969 283.863281 C 243.78125 283.933594 243.648438 284 243.507812 284.066406 C 211.621094 299.785156 192.671875 280.96875 175.730469 264.144531 C 163.269531 251.765625 148.605469 251.476562 135.667969 251.222656 C 125.105469 251.019531 115.132812 250.820312 108.023438 244.082031 C 104.523438 240.761719 80.84375 216.917969 81.25 180.363281 C 81.339844 175.695312 81.789062 170.90625 82.675781 166.015625 C 82.710938 165.820312 82.746094 165.628906 82.785156 165.433594 C 82.9375 164.621094 83.113281 163.800781 83.289062 162.984375 C 83.460938 162.210938 83.628906 161.4375 83.820312 160.660156 C 83.898438 160.335938 83.984375 160.007812 84.066406 159.683594 C 84.363281 158.515625 84.675781 157.347656 85.019531 156.175781 C 85.019531 156.175781 85.019531 156.175781 85.023438 156.171875 C 85.402344 154.882812 85.816406 153.597656 86.253906 152.308594 C 86.308594 152.160156 86.355469 152.011719 86.410156 151.867188 C 86.769531 150.828125 87.15625 149.785156 87.554688 148.746094 C 87.730469 148.289062 87.90625 147.832031 88.09375 147.375 C 88.277344 146.90625 88.476562 146.441406 88.675781 145.976562 C 88.757812 145.777344 88.839844 145.578125 88.921875 145.378906 C 88.960938 145.292969 88.996094 145.203125 89.035156 145.117188 C 89.300781 144.503906 89.5625 143.886719 89.84375 143.273438 C 89.878906 143.199219 89.90625 143.125 89.941406 143.046875 C 89.960938 143.003906 89.984375 142.960938 90.003906 142.917969 C 90.089844 142.738281 90.175781 142.554688 90.261719 142.375 C 90.472656 141.917969 90.695312 141.460938 90.917969 141.003906 C 90.964844 140.902344 91.015625 140.800781 91.066406 140.703125 C 91.160156 140.507812 91.257812 140.316406 91.351562 140.121094 C 91.429688 139.972656 91.5 139.824219 91.578125 139.675781 C 91.824219 139.183594 92.0625 138.691406 92.320312 138.203125 C 98.207031 127.125 106.09375 117.347656 115.582031 109.042969 C 159.527344 70.585938 227.53125 76.15625 267.179688 121.460938 C 306.828125 166.761719 303.402344 234.988281 259.457031 273.445312 C 259.132812 273.730469 258.796875 274.007812 258.46875 274.292969 Z M 258.464844 274.285156 " clip-rule="nonzero"/></clipPath><linearGradient x1="-153.641473" gradientTransform="matrix(0.142586, 0.280408, -0.280408, 0.142586, 233.044709, 44.799869)" y1="339.92001" x2="866.678033" gradientUnits="userSpaceOnUse" y2="339.92001" id="61ea5ec237"><stop stop-opacity="1" stop-color="rgb(100%, 87.098694%, 34.899902%)" offset="0"/><stop stop-opacity="1" stop-color="rgb(100%, 87.098694%, 34.899902%)" offset="0.0625"/><stop stop-opacity="1" stop-color="rgb(100%, 87.098694%, 34.899902%)" offset="0.078125"/><stop stop-opacity="1" stop-color="rgb(100%, 87.098694%, 34.899902%)" offset="0.0859375"/><stop stop-opacity="1" stop-color="rgb(99.461365%, 86.705017%, 35.05249%)" offset="0.0898438"/><stop stop-opacity="1" stop-color="rgb(98.924255%, 86.31134%, 35.206604%)" offset="0.09375"/><stop stop-opacity="1" stop-color="rgb(97.088623%, 84.965515%, 35.72998%)" offset="0.0976562"/><stop stop-opacity="1" stop-color="rgb(95.254517%, 83.621216%, 36.253357%)" offset="0.101562"/><stop stop-opacity="1" stop-color="rgb(93.418884%, 82.275391%, 36.776733%)" offset="0.105469"/><stop stop-opacity="1" stop-color="rgb(91.584778%, 80.929565%, 37.301636%)" offset="0.109375"/><stop stop-opacity="1" stop-color="rgb(89.749146%, 79.58374%, 37.825012%)" offset="0.113281"/><stop stop-opacity="1" stop-color="rgb(87.915039%, 78.239441%, 38.349915%)" offset="0.117188"/><stop stop-opacity="1" stop-color="rgb(86.079407%, 76.893616%, 38.873291%)" offset="0.121094"/><stop stop-opacity="1" stop-color="rgb(84.2453%, 75.547791%, 39.398193%)" offset="0.125"/><stop stop-opacity="1" stop-color="rgb(82.409668%, 74.201965%, 39.92157%)" offset="0.128906"/><stop stop-opacity="1" stop-color="rgb(80.575562%, 72.857666%, 40.444946%)" offset="0.132812"/><stop stop-opacity="1" stop-color="rgb(78.739929%, 71.511841%, 40.968323%)" offset="0.136719"/><stop stop-opacity="1" stop-color="rgb(76.905823%, 70.166016%, 41.493225%)" offset="0.140625"/><stop stop-opacity="1" stop-color="rgb(75.07019%, 68.82019%, 42.016602%)" offset="0.144531"/><stop stop-opacity="1" stop-color="rgb(73.236084%, 67.475891%, 42.541504%)" offset="0.148438"/><stop stop-opacity="1" stop-color="rgb(71.400452%, 66.130066%, 43.06488%)" offset="0.152344"/><stop stop-opacity="1" stop-color="rgb(69.566345%, 64.784241%, 43.589783%)" offset="0.15625"/><stop stop-opacity="1" stop-color="rgb(67.730713%, 63.438416%, 44.113159%)" offset="0.160156"/><stop stop-opacity="1" stop-color="rgb(65.896606%, 62.094116%, 44.636536%)" offset="0.164062"/><stop stop-opacity="1" stop-color="rgb(64.060974%, 60.748291%, 45.159912%)" offset="0.167969"/><stop stop-opacity="1" stop-color="rgb(62.226868%, 59.402466%, 45.684814%)" offset="0.171875"/><stop stop-opacity="1" stop-color="rgb(60.391235%, 58.056641%, 46.208191%)" offset="0.175781"/><stop stop-opacity="1" stop-color="rgb(58.557129%, 56.712341%, 46.733093%)" offset="0.179688"/><stop stop-opacity="1" stop-color="rgb(56.721497%, 55.366516%, 47.25647%)" offset="0.183594"/><stop stop-opacity="1" stop-color="rgb(54.88739%, 54.020691%, 47.779846%)" offset="0.1875"/><stop stop-opacity="1" stop-color="rgb(53.051758%, 52.674866%, 48.303223%)" offset="0.191406"/><stop stop-opacity="1" stop-color="rgb(51.217651%, 51.330566%, 48.828125%)" offset="0.195312"/><stop stop-opacity="1" stop-color="rgb(49.382019%, 49.984741%, 49.351501%)" offset="0.199219"/><stop stop-opacity="1" stop-color="rgb(47.547913%, 48.638916%, 49.876404%)" offset="0.203125"/><stop stop-opacity="1" stop-color="rgb(45.71228%, 47.293091%, 50.39978%)" offset="0.207031"/><stop stop-opacity="1" stop-color="rgb(43.878174%, 45.948792%, 50.924683%)" offset="0.210937"/><stop stop-opacity="1" stop-color="rgb(42.042542%, 44.602966%, 51.448059%)" offset="0.214844"/><stop stop-opacity="1" stop-color="rgb(40.208435%, 43.257141%, 51.971436%)" offset="0.21875"/><stop stop-opacity="1" stop-color="rgb(38.372803%, 41.911316%, 52.494812%)" offset="0.222656"/><stop stop-opacity="1" stop-color="rgb(36.538696%, 40.567017%, 53.019714%)" offset="0.226562"/><stop stop-opacity="1" stop-color="rgb(34.703064%, 39.221191%, 53.543091%)" offset="0.230469"/><stop stop-opacity="1" stop-color="rgb(32.868958%, 37.875366%, 54.067993%)" offset="0.234375"/><stop stop-opacity="1" stop-color="rgb(31.033325%, 36.529541%, 54.59137%)" offset="0.238281"/><stop stop-opacity="1" stop-color="rgb(29.199219%, 35.185242%, 55.116272%)" offset="0.242188"/><stop stop-opacity="1" stop-color="rgb(27.363586%, 33.839417%, 55.639648%)" offset="0.246094"/><stop stop-opacity="1" stop-color="rgb(25.52948%, 32.495117%, 56.163025%)" offset="0.25"/><stop stop-opacity="1" stop-color="rgb(23.693848%, 31.149292%, 56.686401%)" offset="0.253906"/><stop stop-opacity="1" stop-color="rgb(21.859741%, 29.803467%, 57.211304%)" offset="0.257812"/><stop stop-opacity="1" stop-color="rgb(20.024109%, 28.457642%, 57.73468%)" offset="0.261719"/><stop stop-opacity="1" stop-color="rgb(18.190002%, 27.113342%, 58.259583%)" offset="0.265625"/><stop stop-opacity="1" stop-color="rgb(16.725159%, 26.037598%, 58.677673%)" offset="0.269531"/><stop stop-opacity="1" stop-color="rgb(15.260315%, 24.963379%, 59.095764%)" offset="0.273438"/><stop stop-opacity="1" stop-color="rgb(17.012024%, 26.248169%, 58.595276%)" offset="0.277344"/><stop stop-opacity="1" stop-color="rgb(18.763733%, 27.532959%, 58.096313%)" offset="0.28125"/><stop stop-opacity="1" stop-color="rgb(20.513916%, 28.816223%, 57.595825%)" offset="0.285156"/><stop stop-opacity="1" stop-color="rgb(22.265625%, 30.101013%, 57.095337%)" offset="0.289062"/><stop stop-opacity="1" stop-color="rgb(24.017334%, 31.384277%, 56.594849%)" offset="0.292969"/><stop stop-opacity="1" stop-color="rgb(25.769043%, 32.669067%, 56.095886%)" offset="0.296875"/><stop stop-opacity="1" stop-color="rgb(27.520752%, 33.953857%, 55.595398%)" offset="0.300781"/><stop stop-opacity="1" stop-color="rgb(29.272461%, 35.238647%, 55.09491%)" offset="0.304688"/><stop stop-opacity="1" stop-color="rgb(31.022644%, 36.521912%, 54.594421%)" offset="0.308594"/><stop stop-opacity="1" stop-color="rgb(32.774353%, 37.806702%, 54.095459%)" offset="0.3125"/><stop stop-opacity="1" stop-color="rgb(34.526062%, 39.089966%, 53.594971%)" offset="0.316406"/><stop stop-opacity="1" stop-color="rgb(36.277771%, 40.374756%, 53.094482%)" offset="0.320312"/><stop stop-opacity="1" stop-color="rgb(38.02948%, 41.659546%, 52.593994%)" offset="0.324219"/><stop stop-opacity="1" stop-color="rgb(39.781189%, 42.944336%, 52.095032%)" offset="0.328125"/><stop stop-opacity="1" stop-color="rgb(41.531372%, 44.2276%, 51.594543%)" offset="0.332031"/><stop stop-opacity="1" stop-color="rgb(43.283081%, 45.51239%, 51.094055%)" offset="0.335938"/><stop stop-opacity="1" stop-color="rgb(45.03479%, 46.795654%, 50.593567%)" offset="0.339844"/><stop stop-opacity="1" stop-color="rgb(46.786499%, 48.080444%, 50.094604%)" offset="0.34375"/><stop stop-opacity="1" stop-color="rgb(48.538208%, 49.365234%, 49.594116%)" offset="0.347656"/><stop stop-opacity="1" stop-color="rgb(50.289917%, 50.650024%, 49.093628%)" offset="0.351563"/><stop stop-opacity="1" stop-color="rgb(52.041626%, 51.933289%, 48.59314%)" offset="0.355469"/><stop stop-opacity="1" stop-color="rgb(53.793335%, 53.218079%, 48.092651%)" offset="0.359375"/><stop stop-opacity="1" stop-color="rgb(55.543518%, 54.501343%, 47.592163%)" offset="0.363281"/><stop stop-opacity="1" stop-color="rgb(57.295227%, 55.786133%, 47.093201%)" offset="0.367188"/><stop stop-opacity="1" stop-color="rgb(59.046936%, 57.070923%, 46.592712%)" offset="0.371094"/><stop stop-opacity="1" stop-color="rgb(60.798645%, 58.355713%, 46.092224%)" offset="0.375"/><stop stop-opacity="1" stop-color="rgb(62.550354%, 59.638977%, 45.591736%)" offset="0.378906"/><stop stop-opacity="1" stop-color="rgb(64.302063%, 60.923767%, 45.092773%)" offset="0.382812"/><stop stop-opacity="1" stop-color="rgb(66.052246%, 62.207031%, 44.592285%)" offset="0.386719"/><stop stop-opacity="1" stop-color="rgb(67.803955%, 63.491821%, 44.091797%)" offset="0.390625"/><stop stop-opacity="1" stop-color="rgb(69.555664%, 64.776611%, 43.591309%)" offset="0.394531"/><stop stop-opacity="1" stop-color="rgb(71.307373%, 66.061401%, 43.092346%)" offset="0.398437"/><stop stop-opacity="1" stop-color="rgb(73.059082%, 67.344666%, 42.591858%)" offset="0.402344"/><stop stop-opacity="1" stop-color="rgb(74.810791%, 68.629456%, 42.09137%)" offset="0.40625"/><stop stop-opacity="1" stop-color="rgb(76.560974%, 69.91272%, 41.590881%)" offset="0.410156"/><stop stop-opacity="1" stop-color="rgb(78.312683%, 71.19751%, 41.091919%)" offset="0.414062"/><stop stop-opacity="1" stop-color="rgb(80.064392%, 72.4823%, 40.591431%)" offset="0.417969"/><stop stop-opacity="1" stop-color="rgb(81.816101%, 73.76709%, 40.090942%)" offset="0.421875"/><stop stop-opacity="1" stop-color="rgb(83.56781%, 75.050354%, 39.590454%)" offset="0.425781"/><stop stop-opacity="1" stop-color="rgb(85.319519%, 76.335144%, 39.091492%)" offset="0.429688"/><stop stop-opacity="1" stop-color="rgb(87.069702%, 77.618408%, 38.591003%)" offset="0.433594"/><stop stop-opacity="1" stop-color="rgb(88.821411%, 78.903198%, 38.090515%)" offset="0.4375"/><stop stop-opacity="1" stop-color="rgb(90.57312%, 80.186462%, 37.590027%)" offset="0.441406"/><stop stop-opacity="1" stop-color="rgb(92.324829%, 81.471252%, 37.091064%)" offset="0.445312"/><stop stop-opacity="1" stop-color="rgb(94.076538%, 82.756042%, 36.590576%)" offset="0.449219"/><stop stop-opacity="1" stop-color="rgb(95.828247%, 84.040833%, 36.090088%)" offset="0.453125"/><stop stop-opacity="1" stop-color="rgb(97.57843%, 85.324097%, 35.5896%)" offset="0.457031"/><stop stop-opacity="1" stop-color="rgb(99.330139%, 86.608887%, 35.090637%)" offset="0.460938"/><stop stop-opacity="1" stop-color="rgb(98.104858%, 85.710144%, 35.440063%)" offset="0.464844"/><stop stop-opacity="1" stop-color="rgb(96.881104%, 84.812927%, 35.78949%)" offset="0.46875"/><stop stop-opacity="1" stop-color="rgb(94.953918%, 83.399963%, 36.338806%)" offset="0.472656"/><stop stop-opacity="1" stop-color="rgb(93.028259%, 81.987%, 36.889648%)" offset="0.476562"/><stop stop-opacity="1" stop-color="rgb(91.101074%, 80.574036%, 37.438965%)" offset="0.480469"/><stop stop-opacity="1" stop-color="rgb(89.175415%, 79.162598%, 37.989807%)" offset="0.484375"/><stop stop-opacity="1" stop-color="rgb(87.24823%, 77.749634%, 38.539124%)" offset="0.488281"/><stop stop-opacity="1" stop-color="rgb(85.321045%, 76.33667%, 39.089966%)" offset="0.492188"/><stop stop-opacity="1" stop-color="rgb(83.39386%, 74.923706%, 39.639282%)" offset="0.496094"/><stop stop-opacity="1" stop-color="rgb(81.468201%, 73.510742%, 40.190125%)" offset="0.5"/><stop stop-opacity="1" stop-color="rgb(79.541016%, 72.097778%, 40.739441%)" offset="0.503906"/><stop stop-opacity="1" stop-color="rgb(77.615356%, 70.68634%, 41.290283%)" offset="0.507812"/><stop stop-opacity="1" stop-color="rgb(75.688171%, 69.273376%, 41.8396%)" offset="0.511719"/><stop stop-opacity="1" stop-color="rgb(73.762512%, 67.860413%, 42.390442%)" offset="0.515625"/><stop stop-opacity="1" stop-color="rgb(71.835327%, 66.447449%, 42.941284%)" offset="0.519531"/><stop stop-opacity="1" stop-color="rgb(69.908142%, 65.034485%, 43.492126%)" offset="0.523438"/><stop stop-opacity="1" stop-color="rgb(67.980957%, 63.621521%, 44.041443%)" offset="0.527344"/><stop stop-opacity="1" stop-color="rgb(66.055298%, 62.210083%, 44.592285%)" offset="0.53125"/><stop stop-opacity="1" stop-color="rgb(64.128113%, 60.797119%, 45.141602%)" offset="0.535156"/><stop stop-opacity="1" stop-color="rgb(62.202454%, 59.384155%, 45.692444%)" offset="0.539062"/><stop stop-opacity="1" stop-color="rgb(60.275269%, 57.971191%, 46.24176%)" offset="0.542969"/><stop stop-opacity="1" stop-color="rgb(58.349609%, 56.559753%, 46.792603%)" offset="0.546875"/><stop stop-opacity="1" stop-color="rgb(56.422424%, 55.14679%, 47.341919%)" offset="0.550781"/><stop stop-opacity="1" stop-color="rgb(54.495239%, 53.733826%, 47.892761%)" offset="0.554688"/><stop stop-opacity="1" stop-color="rgb(52.568054%, 52.320862%, 48.442078%)" offset="0.558594"/><stop stop-opacity="1" stop-color="rgb(50.642395%, 50.907898%, 48.99292%)" offset="0.5625"/><stop stop-opacity="1" stop-color="rgb(48.71521%, 49.494934%, 49.542236%)" offset="0.566406"/><stop stop-opacity="1" stop-color="rgb(46.789551%, 48.083496%, 50.093079%)" offset="0.570312"/><stop stop-opacity="1" stop-color="rgb(44.862366%, 46.670532%, 50.642395%)" offset="0.574219"/><stop stop-opacity="1" stop-color="rgb(42.936707%, 45.257568%, 51.193237%)" offset="0.578125"/><stop stop-opacity="1" stop-color="rgb(41.009521%, 43.844604%, 51.742554%)" offset="0.582031"/><stop stop-opacity="1" stop-color="rgb(39.082336%, 42.431641%, 52.293396%)" offset="0.585938"/><stop stop-opacity="1" stop-color="rgb(37.155151%, 41.018677%, 52.842712%)" offset="0.589844"/><stop stop-opacity="1" stop-color="rgb(35.229492%, 39.607239%, 53.393555%)" offset="0.59375"/><stop stop-opacity="1" stop-color="rgb(33.302307%, 38.194275%, 53.942871%)" offset="0.597656"/><stop stop-opacity="1" stop-color="rgb(31.376648%, 36.781311%, 54.493713%)" offset="0.601562"/><stop stop-opacity="1" stop-color="rgb(29.449463%, 35.368347%, 55.04303%)" offset="0.605469"/><stop stop-opacity="1" stop-color="rgb(27.523804%, 33.955383%, 55.593872%)" offset="0.609375"/><stop stop-opacity="1" stop-color="rgb(25.596619%, 32.542419%, 56.143188%)" offset="0.613281"/><stop stop-opacity="1" stop-color="rgb(23.669434%, 31.130981%, 56.694031%)" offset="0.617188"/><stop stop-opacity="1" stop-color="rgb(21.742249%, 29.718018%, 57.244873%)" offset="0.621094"/><stop stop-opacity="1" stop-color="rgb(19.816589%, 28.305054%, 57.795715%)" offset="0.625"/><stop stop-opacity="1" stop-color="rgb(17.889404%, 26.89209%, 58.345032%)" offset="0.628906"/><stop stop-opacity="1" stop-color="rgb(15.963745%, 25.479126%, 58.895874%)" offset="0.632812"/><stop stop-opacity="1" stop-color="rgb(17.071533%, 26.292419%, 58.578491%)" offset="0.636719"/><stop stop-opacity="1" stop-color="rgb(18.180847%, 27.105713%, 58.262634%)" offset="0.640625"/><stop stop-opacity="1" stop-color="rgb(20.446777%, 28.767395%, 57.614136%)" offset="0.644531"/><stop stop-opacity="1" stop-color="rgb(22.714233%, 30.429077%, 56.967163%)" offset="0.648438"/><stop stop-opacity="1" stop-color="rgb(24.980164%, 32.090759%, 56.32019%)" offset="0.652344"/><stop stop-opacity="1" stop-color="rgb(27.246094%, 33.752441%, 55.673218%)" offset="0.65625"/><stop stop-opacity="1" stop-color="rgb(29.512024%, 35.414124%, 55.026245%)" offset="0.660156"/><stop stop-opacity="1" stop-color="rgb(31.77948%, 37.077332%, 54.379272%)" offset="0.664062"/><stop stop-opacity="1" stop-color="rgb(34.04541%, 38.739014%, 53.7323%)" offset="0.667969"/><stop stop-opacity="1" stop-color="rgb(36.312866%, 40.400696%, 53.085327%)" offset="0.671875"/><stop stop-opacity="1" stop-color="rgb(38.578796%, 42.062378%, 52.436829%)" offset="0.675781"/><stop stop-opacity="1" stop-color="rgb(40.846252%, 43.725586%, 51.789856%)" offset="0.679688"/><stop stop-opacity="1" stop-color="rgb(43.112183%, 45.387268%, 51.142883%)" offset="0.683594"/><stop stop-opacity="1" stop-color="rgb(45.379639%, 47.04895%, 50.495911%)" offset="0.6875"/><stop stop-opacity="1" stop-color="rgb(47.645569%, 48.710632%, 49.848938%)" offset="0.691406"/><stop stop-opacity="1" stop-color="rgb(49.913025%, 50.37384%, 49.201965%)" offset="0.695312"/><stop stop-opacity="1" stop-color="rgb(52.178955%, 52.035522%, 48.553467%)" offset="0.699219"/><stop stop-opacity="1" stop-color="rgb(54.446411%, 53.697205%, 47.906494%)" offset="0.703125"/><stop stop-opacity="1" stop-color="rgb(56.712341%, 55.358887%, 47.259521%)" offset="0.707031"/><stop stop-opacity="1" stop-color="rgb(58.979797%, 57.020569%, 46.612549%)" offset="0.710938"/><stop stop-opacity="1" stop-color="rgb(61.245728%, 58.682251%, 45.965576%)" offset="0.714844"/><stop stop-opacity="1" stop-color="rgb(63.513184%, 60.345459%, 45.318604%)" offset="0.71875"/><stop stop-opacity="1" stop-color="rgb(65.779114%, 62.007141%, 44.670105%)" offset="0.722656"/><stop stop-opacity="1" stop-color="rgb(68.045044%, 63.668823%, 44.023132%)" offset="0.726562"/><stop stop-opacity="1" stop-color="rgb(70.310974%, 65.330505%, 43.37616%)" offset="0.730469"/><stop stop-opacity="1" stop-color="rgb(72.57843%, 66.993713%, 42.729187%)" offset="0.734375"/><stop stop-opacity="1" stop-color="rgb(74.84436%, 68.655396%, 42.082214%)" offset="0.738281"/><stop stop-opacity="1" stop-color="rgb(77.111816%, 70.317078%, 41.435242%)" offset="0.742188"/><stop stop-opacity="1" stop-color="rgb(79.377747%, 71.97876%, 40.786743%)" offset="0.746094"/><stop stop-opacity="1" stop-color="rgb(81.645203%, 73.640442%, 40.139771%)" offset="0.75"/><stop stop-opacity="1" stop-color="rgb(83.911133%, 75.302124%, 39.492798%)" offset="0.753906"/><stop stop-opacity="1" stop-color="rgb(86.178589%, 76.965332%, 38.845825%)" offset="0.757812"/><stop stop-opacity="1" stop-color="rgb(88.444519%, 78.627014%, 38.198853%)" offset="0.761719"/><stop stop-opacity="1" stop-color="rgb(90.711975%, 80.288696%, 37.55188%)" offset="0.765625"/><stop stop-opacity="1" stop-color="rgb(92.977905%, 81.950378%, 36.903381%)" offset="0.769531"/><stop stop-opacity="1" stop-color="rgb(95.245361%, 83.613586%, 36.256409%)" offset="0.773438"/><stop stop-opacity="1" stop-color="rgb(97.511292%, 85.275269%, 35.609436%)" offset="0.777344"/><stop stop-opacity="1" stop-color="rgb(99.778748%, 86.936951%, 34.962463%)" offset="0.78125"/><stop stop-opacity="1" stop-color="rgb(98.05603%, 85.673523%, 35.453796%)" offset="0.785156"/><stop stop-opacity="1" stop-color="rgb(96.333313%, 84.411621%, 35.945129%)" offset="0.789062"/><stop stop-opacity="1" stop-color="rgb(94.406128%, 82.998657%, 36.495972%)" offset="0.792969"/><stop stop-opacity="1" stop-color="rgb(92.480469%, 81.585693%, 37.046814%)" offset="0.796875"/><stop stop-opacity="1" stop-color="rgb(90.553284%, 80.172729%, 37.59613%)" offset="0.800781"/><stop stop-opacity="1" stop-color="rgb(88.627625%, 78.761292%, 38.146973%)" offset="0.804688"/><stop stop-opacity="1" stop-color="rgb(86.700439%, 77.348328%, 38.696289%)" offset="0.808594"/><stop stop-opacity="1" stop-color="rgb(84.77478%, 75.935364%, 39.247131%)" offset="0.8125"/><stop stop-opacity="1" stop-color="rgb(82.847595%, 74.5224%, 39.796448%)" offset="0.816406"/><stop stop-opacity="1" stop-color="rgb(80.92041%, 73.109436%, 40.34729%)" offset="0.820312"/><stop stop-opacity="1" stop-color="rgb(78.993225%, 71.696472%, 40.896606%)" offset="0.824219"/><stop stop-opacity="1" stop-color="rgb(77.067566%, 70.285034%, 41.447449%)" offset="0.828125"/><stop stop-opacity="1" stop-color="rgb(75.140381%, 68.87207%, 41.996765%)" offset="0.832031"/><stop stop-opacity="1" stop-color="rgb(73.214722%, 67.459106%, 42.547607%)" offset="0.835938"/><stop stop-opacity="1" stop-color="rgb(71.287537%, 66.046143%, 43.096924%)" offset="0.839844"/><stop stop-opacity="1" stop-color="rgb(69.361877%, 64.633179%, 43.647766%)" offset="0.84375"/><stop stop-opacity="1" stop-color="rgb(67.434692%, 63.220215%, 44.197083%)" offset="0.847656"/><stop stop-opacity="1" stop-color="rgb(65.507507%, 61.808777%, 44.747925%)" offset="0.851562"/><stop stop-opacity="1" stop-color="rgb(63.580322%, 60.395813%, 45.297241%)" offset="0.855469"/><stop stop-opacity="1" stop-color="rgb(61.654663%, 58.982849%, 45.848083%)" offset="0.859375"/><stop stop-opacity="1" stop-color="rgb(59.727478%, 57.569885%, 46.3974%)" offset="0.863281"/><stop stop-opacity="1" stop-color="rgb(57.801819%, 56.156921%, 46.948242%)" offset="0.867188"/><stop stop-opacity="1" stop-color="rgb(55.874634%, 54.743958%, 47.497559%)" offset="0.871094"/><stop stop-opacity="1" stop-color="rgb(53.948975%, 53.33252%, 48.048401%)" offset="0.875"/><stop stop-opacity="1" stop-color="rgb(52.02179%, 51.919556%, 48.597717%)" offset="0.878906"/><stop stop-opacity="1" stop-color="rgb(50.094604%, 50.506592%, 49.14856%)" offset="0.882812"/><stop stop-opacity="1" stop-color="rgb(48.167419%, 49.093628%, 49.697876%)" offset="0.886719"/><stop stop-opacity="1" stop-color="rgb(46.24176%, 47.68219%, 50.248718%)" offset="0.890625"/><stop stop-opacity="1" stop-color="rgb(44.314575%, 46.269226%, 50.799561%)" offset="0.894531"/><stop stop-opacity="1" stop-color="rgb(42.388916%, 44.856262%, 51.350403%)" offset="0.898438"/><stop stop-opacity="1" stop-color="rgb(40.461731%, 43.443298%, 51.899719%)" offset="0.902344"/><stop stop-opacity="1" stop-color="rgb(38.536072%, 42.030334%, 52.450562%)" offset="0.90625"/><stop stop-opacity="1" stop-color="rgb(36.608887%, 40.617371%, 52.999878%)" offset="0.910156"/><stop stop-opacity="1" stop-color="rgb(34.681702%, 39.205933%, 53.55072%)" offset="0.914062"/><stop stop-opacity="1" stop-color="rgb(32.754517%, 37.792969%, 54.100037%)" offset="0.917969"/><stop stop-opacity="1" stop-color="rgb(30.828857%, 36.380005%, 54.650879%)" offset="0.921875"/><stop stop-opacity="1" stop-color="rgb(28.901672%, 34.967041%, 55.200195%)" offset="0.925781"/><stop stop-opacity="1" stop-color="rgb(26.976013%, 33.554077%, 55.751038%)" offset="0.929688"/><stop stop-opacity="1" stop-color="rgb(25.048828%, 32.141113%, 56.300354%)" offset="0.933594"/><stop stop-opacity="1" stop-color="rgb(23.123169%, 30.729675%, 56.851196%)" offset="0.9375"/><stop stop-opacity="1" stop-color="rgb(21.195984%, 29.316711%, 57.400513%)" offset="0.941406"/><stop stop-opacity="1" stop-color="rgb(19.268799%, 27.903748%, 57.951355%)" offset="0.945312"/><stop stop-opacity="1" stop-color="rgb(17.341614%, 26.490784%, 58.500671%)" offset="0.949219"/><stop stop-opacity="1" stop-color="rgb(15.415955%, 25.07782%, 59.051514%)" offset="0.953125"/><stop stop-opacity="1" stop-color="rgb(15.156555%, 24.888611%, 59.124756%)" offset="0.957031"/><stop stop-opacity="1" stop-color="rgb(14.898682%, 24.699402%, 59.199524%)" offset="0.960938"/><stop stop-opacity="1" stop-color="rgb(14.898682%, 24.699402%, 59.199524%)" offset="0.96875"/><stop stop-opacity="1" stop-color="rgb(14.898682%, 24.699402%, 59.199524%)" offset="1"/></linearGradient></defs><rect x="-37.5" width="450" fill="#ffffff" y="-37.499999" height="449.999989" fill-opacity="1"/><rect x="-37.5" width="450" fill="#ffffff" y="-37.499999" height="449.999989" fill-opacity="1"/><g clip-path="url(#e2ac01f8f1)"><g clip-path="url(#d4be93ec7d)"><g clip-path="url(#f38cc9e057)"><g clip-path="url(#fce5558f8c)"><path fill="url(#61ea5ec237)" d="M 260.488281 -23.375 L -20.613281 119.5625 L 124.871094 405.667969 L 405.96875 262.730469 Z M 260.488281 -23.375 " fill-rule="nonzero"/></g></g></g></g><g fill="#365b6d" fill-opacity="1"><g transform="translate(120.350611, 161.808234)"><g><path d="M 5.375 -18.328125 C 6.15625 -17.753906 6.765625 -17.03125 7.203125 -16.15625 C 7.648438 -15.28125 7.878906 -14.382812 7.890625 -13.46875 C 7.921875 -11.664062 7.226562 -9.800781 5.8125 -7.875 L 1.546875 -2.09375 L -17.359375 -16.046875 L -13.59375 -21.15625 C -11.550781 -23.914062 -9.375 -25.082031 -7.0625 -24.65625 C -6.226562 -24.5 -5.492188 -24.1875 -4.859375 -23.71875 C -4.234375 -23.25 -3.78125 -22.847656 -3.5 -22.515625 C -3.207031 -22.117188 -2.960938 -21.707031 -2.765625 -21.28125 C -2.359375 -20.320312 -2.253906 -19.398438 -2.453125 -18.515625 C -1.328125 -19.398438 -0.0820312 -19.847656 1.28125 -19.859375 C 2.664062 -19.828125 4.03125 -19.316406 5.375 -18.328125 Z M -6 -21.5625 C -7.90625 -22.96875 -9.816406 -22.375 -11.734375 -19.78125 L -14.0625 -16.609375 L -8.171875 -12.265625 L -5.4375 -15.984375 C -4.6875 -16.992188 -4.335938 -17.988281 -4.390625 -18.96875 C -4.429688 -19.9375 -4.96875 -20.800781 -6 -21.5625 Z M 3.578125 -16.65625 C 3.023438 -17.0625 2.457031 -17.320312 1.875 -17.4375 C 1.28125 -17.519531 0.703125 -17.515625 0.140625 -17.421875 C -1.054688 -17.160156 -2.019531 -16.53125 -2.75 -15.53125 L -6.21875 -10.828125 L 1.125 -5.40625 L 4.359375 -9.796875 C 5.234375 -10.984375 5.609375 -12.210938 5.484375 -13.484375 C 5.335938 -14.753906 4.703125 -15.8125 3.578125 -16.65625 Z M 3.578125 -16.65625 "/></g></g></g><g fill="#365b6d" fill-opacity="1"><g transform="translate(129.714044, 148.544629)"><g><path d="M 6.25 -15.3125 C 5.300781 -16.425781 4.082031 -17.078125 2.59375 -17.265625 C 1.082031 -17.441406 -0.25 -17.035156 -1.40625 -16.046875 C -2.570312 -15.054688 -3.175781 -13.8125 -3.21875 -12.3125 C -3.300781 -10.800781 -2.867188 -9.488281 -1.921875 -8.375 C -0.960938 -7.25 0.273438 -6.597656 1.796875 -6.421875 C 3.273438 -6.234375 4.597656 -6.632812 5.765625 -7.625 C 6.921875 -8.613281 7.535156 -9.863281 7.609375 -11.375 C 7.660156 -12.875 7.207031 -14.1875 6.25 -15.3125 Z M 13.03125 -11.09375 L 11.1875 -9.515625 L 9.5 -11.484375 C 9.519531 -11.265625 9.53125 -11.046875 9.53125 -10.828125 C 9.457031 -8.660156 8.625 -6.894531 7.03125 -5.53125 C 5.4375 -4.175781 3.570312 -3.648438 1.4375 -3.953125 C -0.632812 -4.242188 -2.363281 -5.195312 -3.75 -6.8125 C -5.113281 -8.414062 -5.773438 -10.269531 -5.734375 -12.375 C -5.679688 -14.53125 -4.859375 -16.285156 -3.265625 -17.640625 C -1.671875 -19.003906 0.203125 -19.539062 2.359375 -19.25 C 2.566406 -19.21875 2.785156 -19.175781 3.015625 -19.125 L 1.328125 -21.09375 L 3.171875 -22.671875 Z M 13.03125 -11.09375 "/></g></g></g><g fill="#365b6d" fill-opacity="1"><g transform="translate(143.376513, 137.224067)"><g><path d="M 3 -15.640625 C 2.269531 -15.816406 1.628906 -15.742188 1.078125 -15.421875 C 0.535156 -15.109375 0.15625 -14.6875 -0.0625 -14.15625 C -0.269531 -13.613281 -0.378906 -13.046875 -0.390625 -12.453125 C -0.378906 -11.285156 -0.0664062 -10.164062 0.546875 -9.09375 L 4.34375 -2.5 L 2.25 -1.296875 L -5.328125 -14.46875 L -3.234375 -15.671875 L -1.671875 -12.953125 L -1.90625 -13.546875 C -2.132812 -15.585938 -1.515625 -17.03125 -0.046875 -17.875 C 0.410156 -18.144531 0.90625 -18.304688 1.4375 -18.359375 Z M 3 -15.640625 "/></g></g></g><g fill="#365b6d" fill-opacity="1"><g transform="translate(150.772623, 132.290343)"><g><path d="M 11.3125 -12.0625 C 10.820312 -13.445312 9.921875 -14.488281 8.609375 -15.1875 C 7.253906 -15.894531 5.859375 -16 4.421875 -15.5 C 2.984375 -14.988281 1.976562 -14.039062 1.40625 -12.65625 C 0.789062 -11.269531 0.726562 -9.882812 1.21875 -8.5 C 1.707031 -7.101562 2.625 -6.054688 3.96875 -5.359375 C 5.289062 -4.648438 6.671875 -4.550781 8.109375 -5.0625 C 9.546875 -5.5625 10.566406 -6.503906 11.171875 -7.890625 C 11.753906 -9.273438 11.800781 -10.664062 11.3125 -12.0625 Z M 16.140625 -5.6875 L 13.84375 -4.890625 L 12.984375 -7.34375 C 12.921875 -7.113281 12.851562 -6.898438 12.78125 -6.703125 C 11.9375 -4.703125 10.523438 -3.351562 8.546875 -2.65625 C 6.578125 -1.957031 4.648438 -2.128906 2.765625 -3.171875 C 0.921875 -4.179688 -0.351562 -5.6875 -1.0625 -7.6875 C -1.769531 -9.6875 -1.722656 -11.660156 -0.921875 -13.609375 C -0.0976562 -15.597656 1.296875 -16.941406 3.265625 -17.640625 C 5.242188 -18.335938 7.1875 -18.171875 9.09375 -17.140625 C 9.269531 -17.023438 9.453125 -16.90625 9.640625 -16.78125 L 8.78125 -19.234375 L 11.078125 -20.03125 Z M 16.140625 -5.6875 "/></g></g></g><g fill="#365b6d" fill-opacity="1"><g transform="translate(166.922917, 126.280803)"><g><path d="M 13.828125 -9.078125 C 13.671875 -10.546875 13.039062 -11.773438 11.9375 -12.765625 C 10.78125 -13.765625 9.445312 -14.1875 7.9375 -14.03125 C 6.425781 -13.875 5.222656 -13.1875 4.328125 -11.96875 C 3.398438 -10.769531 3.015625 -9.4375 3.171875 -7.96875 C 3.328125 -6.5 3.972656 -5.269531 5.109375 -4.28125 C 6.234375 -3.28125 7.550781 -2.859375 9.0625 -3.015625 C 10.570312 -3.171875 11.789062 -3.859375 12.71875 -5.078125 C 13.613281 -6.273438 13.984375 -7.609375 13.828125 -9.078125 Z M 17.015625 -1.75 L 14.609375 -1.515625 L 14.34375 -4.09375 C 14.226562 -3.882812 14.109375 -3.695312 13.984375 -3.53125 C 12.703125 -1.78125 11.019531 -0.796875 8.9375 -0.578125 C 6.851562 -0.359375 5.015625 -0.976562 3.421875 -2.4375 C 1.867188 -3.851562 0.984375 -5.613281 0.765625 -7.71875 C 0.546875 -9.820312 1.054688 -11.734375 2.296875 -13.453125 C 3.554688 -15.191406 5.226562 -16.171875 7.3125 -16.390625 C 9.394531 -16.609375 11.242188 -15.992188 12.859375 -14.546875 C 13.003906 -14.390625 13.15625 -14.226562 13.3125 -14.0625 L 13.046875 -16.640625 L 15.453125 -16.875 Z M 17.015625 -1.75 "/></g></g></g><g fill="#365b6d" fill-opacity="1"><g transform="translate(184.690592, 124.739105)"><g/></g></g><g fill="#365b6d" fill-opacity="1"><g transform="translate(192.175989, 124.545455)"><g><path d="M 8.375 -6.75 L 16.640625 -4.578125 L 15.265625 -16.109375 Z M 20.296875 5.3125 L 17.765625 4.640625 L 16.921875 -2.1875 L 6.9375 -4.796875 L 2.875 0.75 L 0.328125 0.09375 L 16.703125 -21.609375 Z M 20.296875 5.3125 "/></g></g></g><g fill="#365b6d" fill-opacity="1"><g transform="translate(210.366452, 129.076752)"><g><path d="M 4.390625 2.40625 L 2.28125 1.25 L 14.75 -21.46875 L 16.859375 -20.3125 L 10.453125 -8.65625 C 10.671875 -8.738281 10.882812 -8.816406 11.09375 -8.890625 C 13.132812 -9.609375 15.070312 -9.460938 16.90625 -8.453125 C 18.738281 -7.441406 19.90625 -5.882812 20.40625 -3.78125 C 20.863281 -1.75 20.582031 0.191406 19.5625 2.046875 C 18.539062 3.910156 17.050781 5.195312 15.09375 5.90625 C 13.03125 6.625 11.082031 6.476562 9.25 5.46875 C 7.414062 4.457031 6.257812 2.898438 5.78125 0.796875 C 5.71875 0.585938 5.671875 0.363281 5.640625 0.125 Z M 17.4375 0.890625 C 18.144531 -0.398438 18.320312 -1.773438 17.96875 -3.234375 C 17.59375 -4.691406 16.738281 -5.789062 15.40625 -6.53125 C 14.070312 -7.257812 12.691406 -7.382812 11.265625 -6.90625 C 9.828125 -6.4375 8.753906 -5.554688 8.046875 -4.265625 C 7.335938 -2.960938 7.171875 -1.582031 7.546875 -0.125 C 7.910156 1.332031 8.757812 2.425781 10.09375 3.15625 C 11.425781 3.894531 12.8125 4.023438 14.25 3.546875 C 15.664062 3.078125 16.726562 2.191406 17.4375 0.890625 Z M 17.4375 0.890625 "/></g></g></g><g fill="#365b6d" fill-opacity="1"><g transform="translate(225.643062, 137.289987)"><g><path d="M 11.515625 6.75 C 9.390625 7.445312 7.484375 7.046875 5.796875 5.546875 C 4.515625 4.421875 3.882812 3.117188 3.90625 1.640625 C 3.957031 0.160156 4.5625 -1.234375 5.71875 -2.546875 L 12.03125 -9.65625 L 13.84375 -8.046875 L 7.53125 -0.9375 C 6.875 -0.195312 6.488281 0.578125 6.375 1.390625 C 6.226562 2.222656 6.546875 2.984375 7.328125 3.671875 C 8.742188 4.921875 10.140625 5.359375 11.515625 4.984375 C 12.878906 4.617188 14.265625 3.648438 15.671875 2.078125 L 19.890625 -2.6875 L 21.703125 -1.078125 L 11.609375 10.296875 L 9.796875 8.6875 Z M 11.515625 6.75 "/></g></g></g><g fill="#365b6d" fill-opacity="1"><g transform="translate(237.388776, 147.967717)"><g/></g></g><g fill="#365b6d" fill-opacity="1"><g transform="translate(242.626837, 153.421277)"><g><path d="M 14.125 2.578125 C 12.757812 -2.148438 13.390625 -5.242188 16.015625 -6.703125 C 17.941406 -7.773438 19.757812 -7.90625 21.46875 -7.09375 C 23.164062 -6.269531 24.519531 -4.953125 25.53125 -3.140625 C 27.769531 0.867188 27.609375 4.070312 25.046875 6.46875 L 23.765625 4.171875 C 25.316406 2.785156 25.304688 0.679688 23.734375 -2.140625 C 22.640625 -4.109375 21.285156 -5.160156 19.671875 -5.296875 C 19.066406 -5.359375 18.4375 -5.203125 17.78125 -4.828125 C 16.5 -4.117188 15.898438 -2.890625 15.984375 -1.140625 C 15.984375 -0.304688 16.300781 1.300781 16.9375 3.6875 C 17.5625 6.09375 17.800781 7.953125 17.65625 9.265625 C 17.457031 11.097656 16.523438 12.476562 14.859375 13.40625 C 12.785156 14.5625 10.757812 14.617188 8.78125 13.578125 C 7.132812 12.710938 5.75 11.269531 4.625 9.25 C 2.09375 4.695312 2.363281 1.097656 5.4375 -1.546875 L 6.828125 0.953125 C 4.859375 2.535156 4.769531 4.941406 6.5625 8.171875 C 7.851562 10.472656 9.378906 11.71875 11.140625 11.90625 C 11.835938 12 12.625 11.800781 13.5 11.3125 C 14.332031 10.84375 14.84375 10.125 15.03125 9.15625 C 15.257812 7.78125 14.957031 5.585938 14.125 2.578125 Z M 14.125 2.578125 "/></g></g></g><g fill="#365b6d" fill-opacity="1"><g transform="translate(251.320136, 168.449107)"><g><path d="M 11.25 12.125 C 12.664062 11.726562 13.773438 10.894531 14.578125 9.625 C 15.367188 8.320312 15.5625 6.9375 15.15625 5.46875 C 14.75 4.007812 13.875 2.941406 12.53125 2.265625 C 11.1875 1.554688 9.804688 1.398438 8.390625 1.796875 C 6.960938 2.191406 5.859375 3.035156 5.078125 4.328125 C 4.285156 5.597656 4.09375 6.960938 4.5 8.421875 C 4.90625 9.890625 5.78125 10.976562 7.125 11.6875 C 8.445312 12.375 9.820312 12.519531 11.25 12.125 Z M 4.578125 16.484375 L 3.921875 14.15625 L 6.421875 13.46875 C 6.210938 13.375 6.015625 13.285156 5.828125 13.203125 C 3.878906 12.234375 2.625 10.738281 2.0625 8.71875 C 1.507812 6.695312 1.816406 4.773438 2.984375 2.953125 C 4.117188 1.191406 5.707031 0.03125 7.75 -0.53125 C 9.789062 -1.101562 11.753906 -0.925781 13.640625 0 C 15.578125 0.957031 16.820312 2.445312 17.375 4.46875 C 17.9375 6.488281 17.640625 8.414062 16.484375 10.25 C 16.359375 10.414062 16.222656 10.59375 16.078125 10.78125 L 18.578125 10.09375 L 19.234375 12.421875 Z M 4.578125 16.484375 "/></g></g></g><g fill="#365b6d" fill-opacity="1"><g transform="translate(255.780796, 185.831503)"><g><path d="M 0.53125 4.984375 L 0.28125 2.578125 L 26.0625 -0.171875 L 26.3125 2.234375 Z M 0.53125 4.984375 "/></g></g></g><g fill="#365b6d" fill-opacity="1"><g transform="translate(256.53426, 192.474704)"><g><path d="M 0.078125 5.015625 L 0.03125 2.59375 L 25.953125 2.21875 L 26 4.640625 Z M 0.078125 5.015625 "/></g></g></g><g fill="#365b6d" fill-opacity="1"><g transform="translate(257.207892, 198.434684)"><g><path d="M 5.40625 15.984375 C 6.90625 16.210938 8.269531 15.867188 9.5 14.953125 C 10.738281 14.035156 11.46875 12.828125 11.6875 11.328125 C 11.90625 9.816406 11.554688 8.445312 10.640625 7.21875 C 9.722656 5.988281 8.515625 5.257812 7.015625 5.03125 C 5.523438 4.8125 4.164062 5.160156 2.9375 6.078125 C 1.71875 6.992188 1 8.207031 0.78125 9.71875 C 0.5625 11.21875 0.898438 12.582031 1.796875 13.8125 C 2.710938 15.039062 3.914062 15.765625 5.40625 15.984375 Z M 5.0625 18.375 C 2.875 18.0625 1.140625 17.03125 -0.140625 15.28125 C -1.429688 13.476562 -1.921875 11.507812 -1.609375 9.375 C -1.296875 7.226562 -0.257812 5.488281 1.5 4.15625 C 3.21875 2.84375 5.171875 2.34375 7.359375 2.65625 C 9.523438 2.976562 11.273438 4.023438 12.609375 5.796875 C 13.898438 7.546875 14.390625 9.503906 14.078125 11.671875 C 13.753906 13.828125 12.71875 15.578125 10.96875 16.921875 C 9.195312 18.210938 7.226562 18.695312 5.0625 18.375 Z M 5.0625 18.375 "/></g></g></g><g fill="#365b6d" fill-opacity="1"><g transform="translate(254.963557, 214.98047)"><g><path d="M -2.25 13.15625 C -3.664062 11.414062 -3.96875 9.488281 -3.15625 7.375 C -2.550781 5.78125 -1.550781 4.734375 -0.15625 4.234375 C 1.25 3.753906 2.769531 3.828125 4.40625 4.453125 L 13.28125 7.859375 L 12.40625 10.125 L 3.53125 6.71875 C 2.601562 6.363281 1.742188 6.28125 0.953125 6.46875 C 0.117188 6.613281 -0.484375 7.175781 -0.859375 8.15625 C -1.535156 9.914062 -1.457031 11.375 -0.625 12.53125 C 0.207031 13.6875 1.613281 14.640625 3.59375 15.390625 L 9.53125 17.671875 L 8.65625 19.921875 L -5.546875 14.484375 L -4.671875 12.234375 Z M -2.25 13.15625 "/></g></g></g><g fill="#365b6d" fill-opacity="1"><g transform="translate(249.234369, 229.647621)"><g><path d="M 10.765625 7.25 L 12.6875 8.40625 L 10.734375 11.671875 L 15.8125 14.71875 L 14.578125 16.78125 L 9.5 13.734375 L 7.5625 16.984375 L 5.640625 15.828125 L 7.578125 12.578125 L -3.546875 5.921875 L -2.3125 3.859375 L 8.8125 10.515625 Z M 10.765625 7.25 "/></g></g></g><g fill="#365b6d" fill-opacity="1"><g transform="translate(157.410031, 209.173213)"><g><path d="M 34.71875 -26.640625 C 34.570312 -26.585938 34.5 -26.5 34.5 -26.375 C 34.5 -26.257812 34.570312 -26.15625 34.71875 -26.0625 C 39.28125 -23.78125 41.5625 -19.847656 41.5625 -14.265625 C 41.5625 -9.554688 39.957031 -6 36.75 -3.59375 C 33.550781 -1.195312 29.351562 0 24.15625 0 L 5.671875 0 C 4.847656 0 4.4375 -0.410156 4.4375 -1.234375 L 4.4375 -49.703125 C 4.4375 -50.535156 4.847656 -50.953125 5.671875 -50.953125 L 23.578125 -50.953125 C 35.078125 -50.953125 40.828125 -46.289062 40.828125 -36.96875 C 40.828125 -32.070312 38.789062 -28.628906 34.71875 -26.640625 Z M 15.140625 -42.140625 C 14.847656 -42.140625 14.703125 -41.992188 14.703125 -41.703125 L 14.703125 -30.5 C 14.703125 -30.207031 14.847656 -30.0625 15.140625 -30.0625 L 23.578125 -30.0625 C 25.859375 -30.0625 27.628906 -30.59375 28.890625 -31.65625 C 30.148438 -32.726562 30.78125 -34.1875 30.78125 -36.03125 C 30.78125 -37.914062 30.148438 -39.40625 28.890625 -40.5 C 27.628906 -41.59375 25.859375 -42.140625 23.578125 -42.140625 Z M 24.15625 -8.875 C 26.394531 -8.875 28.144531 -9.441406 29.40625 -10.578125 C 30.664062 -11.722656 31.296875 -13.289062 31.296875 -15.28125 C 31.296875 -17.269531 30.664062 -18.832031 29.40625 -19.96875 C 28.144531 -21.113281 26.375 -21.6875 24.09375 -21.6875 L 15.140625 -21.6875 C 14.847656 -21.6875 14.703125 -21.539062 14.703125 -21.25 L 14.703125 -9.3125 C 14.703125 -9.019531 14.847656 -8.875 15.140625 -8.875 Z M 24.15625 -8.875 "/></g></g></g><g fill="#365b6d" fill-opacity="1"><g transform="translate(174.978317, 239.527323)"><g><path d="M 21.6875 0.578125 C 17.90625 0.578125 14.582031 -0.0507812 11.71875 -1.3125 C 8.851562 -2.570312 6.644531 -4.34375 5.09375 -6.625 C 3.539062 -8.90625 2.765625 -11.570312 2.765625 -14.625 L 2.765625 -15.859375 C 2.765625 -16.691406 3.175781 -17.109375 4 -17.109375 L 11.640625 -17.109375 C 12.460938 -17.109375 12.875 -16.789062 12.875 -16.15625 L 12.875 -15.140625 C 12.875 -13.203125 13.757812 -11.5625 15.53125 -10.21875 C 17.3125 -8.882812 19.628906 -8.21875 22.484375 -8.21875 C 25.054688 -8.21875 26.960938 -8.765625 28.203125 -9.859375 C 29.441406 -10.953125 30.0625 -12.300781 30.0625 -13.90625 C 30.0625 -15.0625 29.671875 -16.039062 28.890625 -16.84375 C 28.117188 -17.644531 27.078125 -18.347656 25.765625 -18.953125 C 24.453125 -19.566406 22.34375 -20.40625 19.4375 -21.46875 C 16.132812 -22.582031 13.363281 -23.722656 11.125 -24.890625 C 8.894531 -26.054688 7.003906 -27.644531 5.453125 -29.65625 C 3.898438 -31.664062 3.125 -34.15625 3.125 -37.125 C 3.125 -40.03125 3.875 -42.570312 5.375 -44.75 C 6.882812 -46.9375 8.984375 -48.613281 11.671875 -49.78125 C 14.367188 -50.945312 17.441406 -51.53125 20.890625 -51.53125 C 24.578125 -51.53125 27.875 -50.875 30.78125 -49.5625 C 33.695312 -48.25 35.96875 -46.414062 37.59375 -44.0625 C 39.21875 -41.71875 40.03125 -38.988281 40.03125 -35.875 L 40.03125 -35.15625 C 40.03125 -34.332031 39.617188 -33.921875 38.796875 -33.921875 L 31.15625 -33.921875 C 30.320312 -33.921875 29.90625 -34.160156 29.90625 -34.640625 L 29.90625 -35.375 C 29.90625 -37.40625 29.066406 -39.132812 27.390625 -40.5625 C 25.722656 -42 23.4375 -42.71875 20.53125 -42.71875 C 18.195312 -42.71875 16.398438 -42.234375 15.140625 -41.265625 C 13.878906 -40.296875 13.25 -38.960938 13.25 -37.265625 C 13.25 -36.046875 13.609375 -35.023438 14.328125 -34.203125 C 15.054688 -33.378906 16.160156 -32.628906 17.640625 -31.953125 C 19.128906 -31.273438 21.425781 -30.398438 24.53125 -29.328125 C 27.925781 -28.066406 30.617188 -26.960938 32.609375 -26.015625 C 34.597656 -25.066406 36.378906 -23.625 37.953125 -21.6875 C 39.535156 -19.75 40.328125 -17.25 40.328125 -14.1875 C 40.328125 -11.226562 39.5625 -8.632812 38.03125 -6.40625 C 36.5 -4.175781 34.335938 -2.453125 31.546875 -1.234375 C 28.753906 -0.0234375 25.46875 0.578125 21.6875 0.578125 Z M 21.6875 0.578125 "/></g></g></g><path stroke-linecap="butt" transform="matrix(0.26009, 0.703458, -0.703458, 0.26009, 188.552541, 170.192202)" fill="none" stroke-linejoin="miter" d="M -0.000964699 1.501435 L 29.230969 1.497833 " stroke="#f2f1ec" stroke-width="3" stroke-opacity="1" stroke-miterlimit="4"/></svg>